<svg width="1440" height="900" viewBox="0 0 1440 900" fill="none" xmlns="http://www.w3.org/2000/svg">
<rect width="1440" height="900" fill="#F8CDE1"/>
<rect y="681" width="1440" height="219" fill="#F8AEC5"/>
<path d="M21.3151 674.283C27.7544 675.864 35.5816 675.158 40.8151 671.283L69.3151 672.283C76.0445 676.738 80.1091 677.639 88.8151 671.283C97.1544 663.405 96.1013 658.406 87.3151 648.783C98.0032 648.362 100.279 645.228 101.315 637.283C101.085 623.833 97.0452 621.075 87.3151 620.783C92.6007 604.957 90.299 600.268 81.3151 595.783C74.1427 593.297 69.6378 593.919 61.3151 602.783C57.9101 591.598 54.0888 589.05 44.3151 590.283C33.328 590.516 29.9066 596.705 30.8151 610.783C20.2962 609.271 14.8284 609.284 10.8151 620.783C8.59209 633.761 10.8595 638.312 18.3151 643.783C11.8327 651.797 6.05991 661.634 21.3151 674.283Z" fill="#F98BAE" stroke="#E65495" stroke-width="3"/>
<path d="M41.3151 662.283L31.8151 654.783L38.8151 640.783L44.8151 644.283V634.283H61.3151L61.8151 643.783L67.3151 639.283L78.3151 646.783L67.3151 660.283L67.8151 679.5H41.3151V662.283Z" fill="#E65495" stroke="#E65495" stroke-width="3"/>
<path d="M81.5 659.592C75.3751 665.178 74.5258 670.414 74.5 679.5H188C193.272 674.254 191.5 663 184 659.592C176.5 656.184 163.5 659.592 163.5 659.592C163.5 659.592 162 643.092 147 643.092C132 643.092 128.5 649 126.5 652.592C124 646 118.126 642.324 111 643.092C103.222 645.496 100.125 648.495 99 659.592C90.1504 655.335 86.6859 656.111 81.5 659.592Z" fill="#F98BAE" stroke="#E65495" stroke-width="3"/>
<path d="M801.228 661.5C791.819 667.802 794.228 679.5 794.228 679.5H945.5C951 679.5 948.5 666.5 944 665C939.5 663.5 936.318 663.539 930.728 666.5C930.196 654.812 928.41 649.72 918.228 647.5C909.683 646.801 906.256 648.717 902.728 656.5C898.445 648.854 895.031 646.935 887.228 647.5C879.351 649.441 875.895 651.574 876.728 663C873.327 661.351 869.664 660.254 866.188 660C864.285 651.604 861.228 647 854.728 647C848.228 647 843.419 646.81 839.728 655C836.304 648.975 833.83 646.527 826.228 647.5C818 648.554 816.5 650 816.5 660.5C810.292 657.678 807.083 659.226 801.228 661.5Z" fill="#F98BAE"/>
<path d="M866.188 660C864.285 651.604 861.228 647 854.728 647C848.228 647 843.419 646.81 839.728 655C836.304 648.975 833.83 646.527 826.228 647.5C818 648.554 816.5 650 816.5 660.5C810.292 657.678 807.083 659.226 801.228 661.5C791.819 667.802 794.228 679.5 794.228 679.5H945.5C951 679.5 948.5 666.5 944 665C939.5 663.5 936.318 663.539 930.728 666.5C930.196 654.812 928.41 649.72 918.228 647.5C909.683 646.801 906.256 648.717 902.728 656.5C898.445 648.854 895.031 646.935 887.228 647.5C879.351 649.441 875.895 651.574 876.728 663C869.363 659.428 860.77 658.45 855.5 663C850.5 669 851.148 671.24 852 679" stroke="#E65495" stroke-width="3"/>
<path d="M734.315 675.283C740.754 676.864 748.582 676.158 753.815 672.283L782.315 673.283C789.045 677.738 793.109 678.639 801.815 672.283C810.154 664.405 809.101 659.406 800.315 649.783C811.003 649.362 813.279 646.228 814.315 638.283C814.085 624.833 810.045 622.075 800.315 621.783C805.601 605.957 803.299 601.268 794.315 596.783C787.143 594.297 782.638 594.919 774.315 603.783C770.91 592.598 767.089 590.05 757.315 591.283C746.328 591.516 742.907 597.705 743.815 611.783C733.296 610.271 727.828 610.284 723.815 621.783C721.592 634.761 723.859 639.312 731.315 644.783C724.833 652.797 719.06 662.634 734.315 675.283Z" fill="#F98BAE" stroke="#E65495" stroke-width="3"/>
<path d="M754.5 662L745 654.5L752 640.5L758 644V634H774.5L775 643.5L780.5 639L791.5 646.5L780.5 660L781 679.5H754.5V662Z" fill="#E65495" stroke="#E65495" stroke-width="3"/>
<path d="M954.315 674.283C960.754 675.864 968.582 675.158 973.815 671.283L1002.32 672.283C1009.04 676.738 1013.11 677.639 1021.82 671.283C1030.15 663.405 1029.1 658.406 1020.32 648.783C1031 648.362 1033.28 645.228 1034.32 637.283C1034.08 623.833 1030.05 621.075 1020.32 620.783C1025.6 604.957 1023.3 600.268 1014.32 595.783C1007.14 593.297 1002.64 593.919 994.315 602.783C990.91 591.598 987.089 589.05 977.315 590.283C966.328 590.516 962.907 596.705 963.815 610.783C953.296 609.271 947.828 609.284 943.815 620.783C941.592 633.761 943.859 638.312 951.315 643.783C944.833 651.797 939.06 661.634 954.315 674.283Z" fill="#F98BAE" stroke="#E65495" stroke-width="3"/>
<path d="M974.315 662.283L964.815 654.783L971.815 640.783L977.815 644.283V634.283H994.315L994.815 643.783L1000.32 639.283L1011.32 646.783L1000.32 660.283L1000.5 679.5H974.315V662.283Z" fill="#E65495" stroke="#E65495" stroke-width="3"/>
<path d="M536 629.014C534.315 638.842 531.085 639.852 525 641.014L466 649.514L463.5 601.514C463.7 595.747 464.392 592.326 474 583.514C479.401 580.768 482.397 579.906 487.5 583.514C493.23 570.683 498.685 571.056 508.5 572.014C523.293 576.967 523.29 582.463 521 593.014C528.389 591.718 530.05 594.691 533 600.014C536.068 607.024 536.801 610.959 530 618.014C535.275 618.513 535.954 621.742 536 629.014Z" fill="#F38DB2" stroke="#E65495" stroke-width="3"/>
<path d="M343.055 609.515C342.844 614.379 343.124 616.774 346.055 619.015L384.055 635.015L409.555 620.515L412.055 587.515C408.976 575.613 406.881 569.908 400.555 566.515C394.126 564.952 391.561 565.646 389.055 570.015C388.877 563.045 386.708 560.348 376.055 559.515C366.772 559.961 361.826 561.76 358.055 574.015C347.6 573.305 346.199 576.88 344.555 584.015C342.838 593.466 343.818 597.392 351.055 600.515C345.457 601.241 343.447 602.921 343.055 609.515Z" fill="#F38DB2" stroke="#E65495" stroke-width="3"/>
<path d="M403.5 602.015C398.761 605.004 396.862 607.024 397.5 611.515L402 633.515L475 634.515C476.021 625.477 477.031 620.794 475.5 609.515C473.372 601.766 470.774 599.442 463.5 599.015C469.745 592.874 469.812 589.363 465.5 583.015C462.228 578.5 460.267 576.392 455 578.515C452.061 565.127 449.544 558.651 435 559.015C421.873 559.954 415.823 564.272 418 580.515C411.256 581.801 408.627 583.253 405 586.515C400.427 593.046 399.728 596.485 403.5 602.015Z" fill="#F38DB2" stroke="#E65495" stroke-width="3"/>
<path d="M371 602.515V616.015V627.515L388.5 628.015L388 605.515L395 601.515L390.5 593.515L384.5 598.515L384 585.015H373.5V596.015L368 591.515L364 597.515L371 602.515Z" fill="#E65495" stroke="#E65495" stroke-width="3"/>
<path d="M491 620.015V633.515V645.015L508.5 645.515L508 623.015L515 619.015L510.5 611.015L504.5 616.015L504 602.515H493.5V613.515L488 609.015L484 615.015L491 620.015Z" fill="#E65495" stroke="#E65495" stroke-width="3"/>
<path d="M427 607.015V620.515V632.015L444.5 632.515L444 610.015L451 606.015L446.5 598.015L440.5 603.015L440 589.515H429.5V600.515L424 596.015L420 602.015L427 607.015Z" fill="#E65495" stroke="#E65495" stroke-width="3"/>
<path d="M350.484 618.605C324.586 634.072 321.398 648.498 325.5 679.5H613.5L607.984 640.105C600.577 632.336 596.088 628.966 585.984 629.105C574.073 629.918 569.524 632.983 563.984 641.605C560.028 637.924 558.047 635.621 549.984 636.105C544.587 637.646 543.129 640.589 541.484 647.105C536.562 637.472 533.001 633.818 523.984 633.105C509.574 632.022 506.181 634.204 500.984 638.605L500.701 638.342C488.691 627.193 481.17 620.211 471.984 620.605C460.191 619.518 457.277 621.681 446.484 629.105C434.334 620.408 427.571 615.9 416.484 615.105C400.857 614.447 394.162 616.691 384.984 627.105C372.382 618.227 365.623 611.292 350.484 618.605Z" fill="#F38DB2" stroke="#E65495" stroke-width="3"/>
<path d="M678.087 628.857C680.391 636.213 681.491 650.525 678.087 654.015L629 666.5L591.087 662.515V645.357C590.657 638.992 591.639 635.095 598.087 632.357C593.719 626.133 592.184 622.51 597.587 614.857C603.257 609.011 605.998 609.189 610.587 611.857C613.148 600.47 615.155 594.731 626.587 593.357C636.765 590.922 640.581 593.617 645.087 603.357C654.156 596.8 658.887 598.069 664.587 602.357C671.285 608.836 672.107 613.352 667.087 623.357C673.748 623.06 675.731 624.703 678.087 628.857Z" fill="#F38DB2" stroke="#E65495" stroke-width="3"/>
<path d="M645 649.015V663.015H622V649.515L615.5 643.515L622 636.015L627 640.015V625.515H640.5V637.015L646 631.515L654.5 640.015L645 649.015Z" fill="#EA529D" stroke="#EA529D" stroke-width="3"/>
<path d="M651.193 653.617C642.489 658.497 641.458 663.841 642.193 675.117V679.617H715.5C715.506 672.009 715.503 668.876 713.693 663.617C710.66 658.005 708.713 655.031 699.193 658.117C700.796 646.13 698.024 642.75 687.693 641.617C674.192 640.811 669.54 644.687 664.693 655.117C660.387 651.468 657.512 650.88 651.193 653.617Z" fill="#F38DB2" stroke="#E65495" stroke-width="3"/>
<path d="M567.212 662.908C563.352 666.876 562.286 669.62 562.05 675.305L562.05 679.149L648.001 679.654C646.76 670.296 644.755 666.905 639.717 662.927C632.724 658.25 629.27 657.906 623.749 660.411C622.845 652.728 620.856 649.898 613.4 648.736C606.504 648.224 603.78 650.902 601.317 655.041C599.386 650.363 596.679 647.994 588.902 648.417C580.569 649.418 577.21 652.635 575.735 661.172C571.824 660.501 569.862 660.659 567.212 662.908Z" fill="#F38DB2" stroke="#E65495" stroke-width="3"/>
<path d="M319.154 657.046C312.827 662.866 311.608 666.234 316.154 672.546C307.229 670.666 304.943 671.682 308.804 679.546H384.154C390.663 679.339 388.842 676.115 384.154 669.546C377.797 662.109 373.876 659.728 365.154 663.546C365.307 650.067 362.741 645.46 351.154 645.046C343.699 644.677 340.352 646.39 338.654 655.546C330.722 652.212 326.104 652.446 319.154 657.046Z" fill="#F38DB2" stroke="#EA529D" stroke-width="3"/>
<path d="M1258 629.014C1256.31 638.842 1253.09 639.852 1247 641.014L1188 649.514L1185.5 601.514C1185.7 595.747 1186.39 592.326 1196 583.514C1201.4 580.768 1204.4 579.906 1209.5 583.514C1215.23 570.683 1220.68 571.056 1230.5 572.014C1245.29 576.967 1245.29 582.463 1243 593.014C1250.39 591.718 1252.05 594.691 1255 600.014C1258.07 607.024 1258.8 610.959 1252 618.014C1257.27 618.513 1257.95 621.742 1258 629.014Z" fill="#F38DB2" stroke="#E65495" stroke-width="3"/>
<path d="M1065.05 609.515C1064.84 614.379 1065.12 616.774 1068.05 619.015L1106.05 635.015L1131.55 620.515L1134.05 587.515C1130.98 575.613 1128.88 569.908 1122.55 566.515C1116.13 564.952 1113.56 565.646 1111.05 570.015C1110.88 563.045 1108.71 560.348 1098.05 559.515C1088.77 559.961 1083.83 561.76 1080.05 574.015C1069.6 573.305 1068.2 576.88 1066.55 584.015C1064.84 593.466 1065.82 597.392 1073.05 600.515C1067.46 601.241 1065.45 602.921 1065.05 609.515Z" fill="#F38DB2" stroke="#E65495" stroke-width="3"/>
<path d="M1125.5 602.015C1120.76 605.004 1118.86 607.024 1119.5 611.515L1124 633.515L1197 634.515C1198.02 625.477 1199.03 620.794 1197.5 609.515C1195.37 601.766 1192.77 599.442 1185.5 599.015C1191.75 592.874 1191.81 589.363 1187.5 583.015C1184.23 578.5 1182.27 576.392 1177 578.515C1174.06 565.127 1171.54 558.651 1157 559.015C1143.87 559.954 1137.82 564.272 1140 580.515C1133.26 581.801 1130.63 583.253 1127 586.515C1122.43 593.046 1121.73 596.485 1125.5 602.015Z" fill="#F38DB2" stroke="#E65495" stroke-width="3"/>
<path d="M1093 602.515V616.015V627.515L1110.5 628.015L1110 605.515L1117 601.515L1112.5 593.515L1106.5 598.515L1106 585.015H1095.5V596.015L1090 591.515L1086 597.515L1093 602.515Z" fill="#E65495" stroke="#E65495" stroke-width="3"/>
<path d="M1213 620.015V633.515V645.015L1230.5 645.515L1230 623.015L1237 619.015L1232.5 611.015L1226.5 616.015L1226 602.515H1215.5V613.515L1210 609.015L1206 615.015L1213 620.015Z" fill="#E65495" stroke="#E65495" stroke-width="3"/>
<path d="M1149 607.015V620.515V632.015L1166.5 632.515L1166 610.015L1173 606.015L1168.5 598.015L1162.5 603.015L1162 589.515H1151.5V600.515L1146 596.015L1142 602.015L1149 607.015Z" fill="#E65495" stroke="#E65495" stroke-width="3"/>
<path d="M1072.48 618.605C1046.59 634.072 1043.4 648.498 1047.5 679.5H1335.5L1329.98 640.105C1322.58 632.336 1318.09 628.966 1307.98 629.105C1296.07 629.918 1291.52 632.983 1285.98 641.605C1282.03 637.924 1280.05 635.621 1271.98 636.105C1266.59 637.646 1265.13 640.589 1263.48 647.105C1258.56 637.472 1255 633.818 1245.98 633.105C1231.57 632.022 1228.18 634.204 1222.98 638.605L1222.7 638.342C1210.69 627.193 1203.17 620.211 1193.98 620.605C1182.19 619.518 1179.28 621.681 1168.48 629.105C1156.33 620.408 1149.57 615.9 1138.48 615.105C1122.86 614.447 1116.16 616.691 1106.98 627.105C1094.38 618.227 1087.62 611.292 1072.48 618.605Z" fill="#F38DB2" stroke="#E65495" stroke-width="3"/>
<path d="M1400.09 628.857C1402.39 636.213 1403.49 650.525 1400.09 654.015L1351 666.5L1313.09 662.515V645.357C1312.66 638.992 1313.64 635.095 1320.09 632.357C1315.72 626.133 1314.18 622.51 1319.59 614.857C1325.26 609.011 1328 609.189 1332.59 611.857C1335.15 600.47 1337.16 594.731 1348.59 593.357C1358.77 590.922 1362.58 593.617 1367.09 603.357C1376.16 596.8 1380.89 598.069 1386.59 602.357C1393.28 608.836 1394.11 613.352 1389.09 623.357C1395.75 623.06 1397.73 624.703 1400.09 628.857Z" fill="#F38DB2" stroke="#E65495" stroke-width="3"/>
<path d="M1367 649.015V663.015H1344V649.515L1337.5 643.515L1344 636.015L1349 640.015V625.515H1362.5V637.015L1368 631.515L1376.5 640.015L1367 649.015Z" fill="#EA529D" stroke="#EA529D" stroke-width="3"/>
<path d="M1368.5 658.117C1359.8 662.997 1363.46 663.841 1364.19 675.117V679.617H1437.5C1437.51 672.009 1437.5 668.876 1435.69 663.617C1432.66 658.005 1429.5 653.5 1421.5 656C1422.31 643.883 1415.5 644.5 1404 644.5C1390.5 643.694 1387.5 651 1388 657.5C1381.5 652.5 1372.5 655.875 1368.5 658.117Z" fill="#F38DB2" stroke="#E65495" stroke-width="3"/>
<path d="M1289.21 662.908C1285.35 666.876 1284.29 669.62 1284.05 675.305L1284.05 679.149L1370 679.654C1368.76 670.296 1366.75 666.905 1361.72 662.927C1354.72 658.25 1351.27 657.906 1345.75 660.411C1344.85 652.728 1342.86 649.898 1335.4 648.736C1328.5 648.224 1325.78 650.902 1323.32 655.041C1321.39 650.363 1318.68 647.994 1310.9 648.417C1302.57 649.418 1299.21 652.635 1297.73 661.172C1293.82 660.501 1291.86 660.659 1289.21 662.908Z" fill="#F38DB2" stroke="#E65495" stroke-width="3"/>
<path d="M1041.5 656C1038.5 658 1036 660.5 1036.5 668C1029.5 667.5 1027 668.5 1026 670.5C1025 672.5 1024 679 1028.5 679.546H1106.15C1107 679.546 1106.85 668.454 1105.5 666.5C1102.5 660.5 1095.88 659.728 1087.15 663.546C1087.31 650.067 1084.74 645.46 1073.15 645.046C1065.7 644.677 1062.35 646.39 1060.65 655.546C1052.72 652.212 1049 652 1041.5 656Z" fill="#F38DB2" stroke="#EA529D" stroke-width="3"/>
</svg>
