<svg width="1584" height="396" viewBox="0 0 1584 396" fill="none" xmlns="http://www.w3.org/2000/svg">
<g clip-path="url(#clip0_78_123)">
<rect width="1584" height="396" fill="#F8CDE1"/>
<path d="M263.615 117.689C271.439 121.026 276.757 122.813 290.438 114.388C298.984 124.06 303.791 127.708 319.323 124.704C333.7 119.532 335.722 111.729 337.892 96.6443C355.415 100.592 363.687 98.5704 363.889 85.9155C364.33 69.6331 359.018 66.5924 342.019 69.4095C343.635 56.7614 339.796 52.7795 329.639 50.4277C320.512 48.8537 316.061 51.5586 309.007 61.1565C304.373 48.1635 300.112 43.3906 287.136 43C272.299 43.3985 267.964 49.3134 261.139 61.1565C242.168 58.4358 236.599 61.9277 235.555 72.298C235.15 87.4792 240.856 89.7146 253.712 90.8672C252.078 104.632 252.674 111.446 263.615 117.689Z" fill="white" stroke="#FF60A9" stroke-width="2"/>
<path d="M105.138 65.3421C97.3191 64.8663 91.9998 67.0957 86.5692 78.5469C72.2418 76.4183 67.9978 78.2757 68 88.0378C68.1313 98.3357 71.6467 100.862 80.3795 99.5919C79.7477 109.962 79.5727 115.68 89.8704 120.224C101.441 123.189 104.032 120.868 108.44 116.511C112.718 123.338 115.757 126.462 127.421 125.176C138.456 123.383 140.975 118.467 141.451 107.845C159.849 108.531 165.328 105.647 163.734 97.1161C162.018 83.7765 157.609 82.5604 144.34 84.3239L144.356 84.1429C144.913 77.7619 145.23 74.1285 136.5 71.5318C130.508 70.6613 127.161 71.6127 121.232 78.5469C116.437 67.9656 112.905 64.9734 105.138 65.3421Z" fill="white" stroke="#FF60A9" stroke-width="2"/>
<path d="M190.603 75.187C199.529 75.9217 202.792 79.3557 206.697 88.8044C237.168 78.7273 249.88 87.1538 251.263 106.548C252.313 121.284 245.222 122.243 228.154 119.753C229.026 134.618 223.077 135.932 212.886 138.735C202.496 139.913 198.398 137.196 192.254 130.069C188.639 135.904 184.604 136.843 173.685 134.196C163.212 128.347 161.874 123.174 163.369 112.325C155.142 113.917 152.273 111.151 149.751 100.771C148.96 86.3388 158.465 89.2196 170.384 88.8044C173.918 78.9107 177.972 75.5383 190.603 75.187Z" fill="#FFBDD2" stroke="#FF60A9" stroke-width="3"/>
<rect x="-0.5" y="287.5" width="1588" height="108" fill="#F8AEC5" stroke="#946140"/>
<path d="M16.4867 286.22C23.5928 287.965 32.2305 287.185 38.0059 282.909L69.457 284.013C76.8833 288.929 81.3687 289.924 90.9762 282.909C100.179 274.215 99.0169 268.699 89.3209 258.079C101.116 257.614 103.628 254.157 104.771 245.389C104.516 230.546 100.058 227.502 89.3209 227.18C95.1538 209.715 92.6137 204.541 82.6996 199.591C74.7845 196.848 69.8131 197.534 60.6286 207.316C56.871 194.973 52.6541 192.162 41.8683 193.522C29.7435 193.779 25.9678 200.608 26.9705 216.145C15.3623 214.476 9.32839 214.49 4.89951 227.18C2.4463 241.502 4.94848 246.524 13.1761 252.562C6.02242 261.405 -0.348079 272.261 16.4867 286.22Z" fill="#F98BAE" stroke="#EA529D" stroke-width="3"/>
<path d="M38.5569 272.978L28.0732 264.701L35.7981 249.252L42.4194 253.114V242.079H60.6279L61.1797 252.562L67.2492 247.596L79.3882 255.873L67.2492 270.771L67.8009 291.977H38.5569V272.978Z" fill="#E65495" stroke="#EA529D" stroke-width="3"/>
<path d="M82.9026 270.007C76.1435 276.172 75.2062 281.95 75.1777 291.977H200.43C206.248 286.187 204.293 273.768 196.016 270.007C187.74 266.246 173.393 270.007 173.393 270.007C173.393 270.007 171.738 251.799 155.185 251.799C138.632 251.799 134.769 258.319 132.562 262.283C129.803 255.008 123.322 250.952 115.457 251.799C106.874 254.452 103.456 257.762 102.215 270.007C92.4487 265.31 88.6254 266.165 82.9026 270.007Z" fill="#F98BAE" stroke="#EA529D" stroke-width="3"/>
<path d="M877.158 272.114C866.776 279.068 869.434 291.978 869.434 291.978H1036.37C1042.44 291.978 1039.68 277.631 1034.71 275.976C1029.75 274.32 1026.24 274.363 1020.07 277.631C1019.48 264.733 1017.51 259.114 1006.27 256.664C996.844 255.893 993.062 258.006 989.168 266.596C984.443 258.158 980.674 256.04 972.064 256.664C963.372 258.805 959.558 261.16 960.476 273.769C956.723 271.948 952.681 270.738 948.845 270.458C946.745 261.192 943.371 256.112 936.198 256.112C929.025 256.112 923.719 255.902 919.645 264.941C915.867 258.292 913.136 255.59 904.747 256.664C895.667 257.827 894.012 259.422 894.012 271.01C887.162 267.895 883.62 269.604 877.158 272.114Z" fill="#F98BAE"/>
<path d="M948.845 270.458C946.745 261.192 943.371 256.112 936.198 256.112C929.025 256.112 923.719 255.902 919.645 264.941C915.867 258.292 913.136 255.59 904.747 256.664C895.667 257.827 894.012 259.422 894.012 271.01C887.162 267.895 883.62 269.604 877.158 272.114C866.776 279.068 869.434 291.978 869.434 291.978H1036.37C1042.44 291.978 1039.68 277.631 1034.71 275.976C1029.75 274.32 1026.24 274.363 1020.07 277.631C1019.48 264.733 1017.51 259.114 1006.27 256.664C996.844 255.893 993.062 258.006 989.168 266.596C984.443 258.158 980.674 256.04 972.064 256.664C963.372 258.805 959.558 261.16 960.476 273.769C952.349 269.826 942.866 268.748 937.05 273.769C931.533 280.39 932.248 282.862 933.188 291.425" stroke="#EA529D" stroke-width="3"/>
<path d="M803.317 287.324C810.423 289.069 819.061 288.289 824.836 284.013L856.287 285.117C863.713 290.033 868.199 291.028 877.806 284.013C887.009 275.319 885.847 269.803 876.151 259.184C887.946 258.718 890.458 255.261 891.601 246.493C891.347 231.65 886.889 228.606 876.151 228.284C881.984 210.819 879.444 205.645 869.53 200.695C861.615 197.952 856.643 198.638 847.459 208.42C843.701 196.077 839.484 193.266 828.698 194.626C816.574 194.883 812.798 201.712 813.801 217.249C802.192 215.58 796.158 215.594 791.73 228.284C789.276 242.606 791.779 247.628 800.006 253.666C792.852 262.509 786.482 273.365 803.317 287.324Z" fill="#F98BAE" stroke="#EA529D" stroke-width="3"/>
<path d="M825.593 272.665L815.109 264.388L822.834 248.939L829.455 252.801V241.766H847.664L848.216 252.249L854.285 247.283L866.424 255.56L854.285 270.458L854.837 291.977H825.593V272.665Z" fill="#E65495" stroke="#EA529D" stroke-width="3"/>
<path d="M1046.1 286.22C1053.2 287.965 1061.84 287.185 1067.62 282.909L1099.07 284.013C1106.49 288.929 1110.98 289.924 1120.59 282.909C1129.79 274.215 1128.63 268.699 1118.93 258.079C1130.73 257.614 1133.24 254.157 1134.38 245.389C1134.13 230.546 1129.67 227.502 1118.93 227.18C1124.76 209.715 1122.22 204.541 1112.31 199.591C1104.39 196.848 1099.42 197.534 1090.24 207.316C1086.48 194.973 1082.26 192.162 1071.48 193.522C1059.35 193.779 1055.58 200.608 1056.58 216.145C1044.97 214.476 1038.94 214.49 1034.51 227.18C1032.06 241.502 1034.56 246.524 1042.79 252.562C1035.63 261.405 1029.26 272.261 1046.1 286.22Z" fill="#F98BAE" stroke="#EA529D" stroke-width="3"/>
<path d="M1068.17 272.978L1057.69 264.701L1065.41 249.252L1072.03 253.114V242.079H1090.24L1090.79 252.562L1096.86 247.596L1109 255.873L1096.86 270.771L1097.07 291.977H1068.17V272.978Z" fill="#E65495" stroke="#EA529D" stroke-width="3"/>
<path d="M584.465 236.264C582.606 247.109 579.041 248.224 572.326 249.506L507.217 258.887L504.458 205.916C504.679 199.552 505.442 195.776 516.045 186.052C522.005 183.022 525.312 182.07 530.943 186.052C537.267 171.892 543.286 172.304 554.118 173.362C570.443 178.827 570.439 184.893 567.912 196.536C576.066 195.105 577.899 198.386 581.155 204.261C584.541 211.996 585.349 216.338 577.844 224.125C583.665 224.675 584.415 228.239 584.465 236.264Z" fill="#F38DB2" stroke="#EA529D" stroke-width="3"/>
<path d="M371.539 214.745C371.306 220.113 371.615 222.756 374.85 225.228L416.784 242.885L444.925 226.884L447.684 190.467C444.286 177.332 441.974 171.037 434.993 167.292C427.899 165.568 425.068 166.334 422.302 171.155C422.105 163.464 419.712 160.487 407.956 159.567C397.712 160.06 392.253 162.045 388.092 175.569C376.554 174.786 375.009 178.731 373.194 186.604C371.3 197.034 372.381 201.367 380.367 204.813C374.19 205.615 371.972 207.468 371.539 214.745Z" fill="#F38DB2" stroke="#EA529D" stroke-width="3"/>
<path d="M438.244 206.469C433.014 209.767 430.918 211.996 431.622 216.952L436.588 241.23L517.147 242.334C518.274 232.36 519.389 227.193 517.699 214.745C515.351 206.195 512.483 203.63 504.456 203.158C511.348 196.381 511.422 192.507 506.664 185.501C503.053 180.519 500.889 178.193 495.076 180.535C491.833 165.761 489.055 158.615 473.005 159.016C458.519 160.053 451.842 164.818 454.245 182.742C446.803 184.162 443.902 185.764 439.899 189.364C434.852 196.572 434.081 200.367 438.244 206.469Z" fill="#F38DB2" stroke="#EA529D" stroke-width="3"/>
<path d="M402.379 207.02V221.918V234.609L421.691 235.161L421.139 210.331L428.864 205.917L423.898 197.088L417.277 202.606L416.725 187.708H405.138V199.847L399.068 194.881L394.654 201.502L402.379 207.02Z" fill="#E65495" stroke="#EA529D" stroke-width="3"/>
<path d="M534.806 226.333V241.23V253.921L554.118 254.473L553.566 229.643L561.291 225.229L556.325 216.401L549.704 221.918L549.152 207.021H537.565V219.16L531.495 214.194L527.081 220.815L534.806 226.333Z" fill="#E65495" stroke="#EA529D" stroke-width="3"/>
<path d="M464.179 211.986V226.884V239.575L483.491 240.126L482.939 215.297L490.664 210.882L485.698 202.054L479.077 207.572L478.525 192.674H466.938V204.813L460.868 199.847L456.454 206.468L464.179 211.986Z" fill="#E65495" stroke="#EA529D" stroke-width="3"/>
<path d="M379.738 224.777C351.157 241.845 347.64 257.765 352.167 291.977H669.988L663.901 248.503C655.728 239.929 650.773 236.211 639.623 236.364C626.479 237.262 621.458 240.644 615.345 250.158C610.98 246.096 608.793 243.555 599.896 244.089C593.939 245.789 592.33 249.037 590.515 256.228C585.083 245.598 581.154 241.565 571.203 240.778C555.301 239.583 551.556 241.991 545.822 246.848L545.509 246.557C532.256 234.254 523.956 226.549 513.819 226.984C500.804 225.784 497.589 228.171 485.678 236.364C472.27 226.767 464.806 221.792 452.572 220.914C435.327 220.188 427.939 222.664 417.81 234.157C403.903 224.36 396.444 216.706 379.738 224.777Z" fill="#F38DB2" stroke="#EA529D" stroke-width="3"/>
<path d="M741.265 236.091C743.807 244.208 745.021 260.003 741.265 263.853L687.095 277.631L645.257 273.233V254.299C644.782 247.275 645.865 242.974 652.981 239.953C648.161 233.085 646.467 229.086 652.43 220.641C658.687 214.189 661.711 214.386 666.776 217.33C669.602 204.764 671.817 198.431 684.432 196.915C695.664 194.228 699.875 197.202 704.848 207.95C714.855 200.714 720.076 202.114 726.367 206.847C733.758 213.996 734.666 218.98 729.126 230.021C736.476 229.693 738.665 231.507 741.265 236.091Z" fill="#F38DB2" stroke="#EA529D" stroke-width="3"/>
<path d="M704.75 258.336V273.785H679.368V258.887L672.195 252.266L679.368 243.99L684.886 248.404V232.402H699.784V245.093L705.854 239.024L715.234 248.404L704.75 258.336Z" fill="#EA529D" stroke="#EA529D" stroke-width="3"/>
<path d="M711.585 263.415C701.98 268.799 700.842 274.697 701.654 287.141V292.107H782.551C782.558 283.711 782.555 280.253 780.557 274.45C777.21 268.257 775.061 264.975 764.556 268.381C766.325 255.152 763.266 251.422 751.865 250.172C736.966 249.283 731.832 253.56 726.483 265.07C721.732 261.043 718.559 260.393 711.585 263.415Z" fill="#F38DB2" stroke="#EA529D" stroke-width="3"/>
<path d="M618.909 273.667C614.649 278.047 613.473 281.075 613.213 287.348L613.213 291.59L708.063 292.147C706.694 281.82 704.481 278.079 698.922 273.689C691.205 268.528 687.393 268.147 681.3 270.912C680.303 262.434 678.108 259.311 669.88 258.028C662.27 257.463 659.264 260.419 656.545 264.986C654.415 259.823 651.428 257.209 642.845 257.676C633.649 258.781 629.943 262.331 628.315 271.752C623.999 271.011 621.834 271.185 618.909 273.667Z" fill="#F38DB2" stroke="#EA529D" stroke-width="3"/>
<path d="M345.164 267.198C338.182 273.621 336.837 277.338 341.854 284.303C332.005 282.228 329.482 283.35 333.743 292.028H416.895C424.078 291.8 422.069 288.242 416.895 280.993C409.88 272.786 405.553 270.158 395.927 274.371C396.097 259.497 393.265 254.413 380.478 253.956C372.252 253.549 368.557 255.44 366.683 265.543C357.93 261.864 352.834 262.122 345.164 267.198Z" fill="#F38DB2" stroke="#EA529D" stroke-width="3"/>
<path d="M1381.23 236.264C1379.37 247.109 1375.8 248.224 1369.09 249.506L1303.98 258.887L1301.22 205.916C1301.44 199.552 1302.2 195.776 1312.81 186.052C1318.77 183.022 1322.07 182.07 1327.71 186.052C1334.03 171.892 1340.05 172.304 1350.88 173.362C1367.21 178.827 1367.2 184.893 1364.67 196.536C1372.83 195.105 1374.66 198.386 1377.92 204.261C1381.3 211.996 1382.11 216.338 1374.61 224.125C1380.43 224.675 1381.18 228.239 1381.23 236.264Z" fill="#F38DB2" stroke="#EA529D" stroke-width="3"/>
<path d="M1168.3 214.745C1168.07 220.113 1168.38 222.756 1171.62 225.228L1213.55 242.885L1241.69 226.884L1244.45 190.467C1241.05 177.332 1238.74 171.037 1231.76 167.292C1224.66 165.568 1221.83 166.334 1219.07 171.155C1218.87 163.464 1216.48 160.487 1204.72 159.567C1194.48 160.06 1189.02 162.045 1184.86 175.569C1173.32 174.786 1171.77 178.731 1169.96 186.604C1168.07 197.034 1169.15 201.367 1177.13 204.813C1170.96 205.615 1168.74 207.468 1168.3 214.745Z" fill="#F38DB2" stroke="#EA529D" stroke-width="3"/>
<path d="M1235.01 206.469C1229.78 209.767 1227.68 211.996 1228.39 216.952L1233.35 241.23L1313.91 242.334C1315.04 232.36 1316.15 227.193 1314.46 214.745C1312.11 206.195 1309.25 203.63 1301.22 203.158C1308.11 196.381 1308.19 192.507 1303.43 185.501C1299.82 180.519 1297.65 178.193 1291.84 180.535C1288.6 165.761 1285.82 158.615 1269.77 159.016C1255.28 160.053 1248.61 164.818 1251.01 182.742C1243.57 184.162 1240.67 185.764 1236.66 189.364C1231.62 196.572 1230.84 200.367 1235.01 206.469Z" fill="#F38DB2" stroke="#EA529D" stroke-width="3"/>
<path d="M1199.14 207.02V221.918V234.609L1218.45 235.161L1217.9 210.331L1225.63 205.917L1220.66 197.088L1214.04 202.606L1213.49 187.708H1201.9V199.847L1195.83 194.881L1191.42 201.502L1199.14 207.02Z" fill="#E65495" stroke="#EA529D" stroke-width="3"/>
<path d="M1331.57 226.333V241.23V253.921L1350.88 254.473L1350.33 229.643L1358.05 225.229L1353.09 216.401L1346.47 221.918L1345.91 207.021H1334.33V219.16L1328.26 214.194L1323.84 220.815L1331.57 226.333Z" fill="#E65495" stroke="#EA529D" stroke-width="3"/>
<path d="M1260.94 211.986V226.884V239.575L1280.25 240.126L1279.7 215.297L1287.43 210.882L1282.46 202.054L1275.84 207.572L1275.29 192.674H1263.7V204.813L1257.63 199.847L1253.22 206.468L1260.94 211.986Z" fill="#E65495" stroke="#EA529D" stroke-width="3"/>
<path d="M1176.5 224.777C1147.92 241.845 1144.4 257.765 1148.93 291.977H1466.75L1460.67 248.503C1452.49 239.929 1447.54 236.211 1436.39 236.364C1423.24 237.262 1418.22 240.644 1412.11 250.158C1407.74 246.096 1405.56 243.555 1396.66 244.089C1390.7 245.789 1389.09 249.037 1387.28 256.228C1381.85 245.598 1377.92 241.565 1367.97 240.778C1352.07 239.583 1348.32 241.991 1342.59 246.848L1342.27 246.557C1329.02 234.254 1320.72 226.549 1310.58 226.984C1297.57 225.784 1294.35 228.171 1282.44 236.364C1269.03 226.767 1261.57 221.792 1249.34 220.914C1232.09 220.188 1224.7 222.664 1214.57 234.157C1200.67 224.36 1193.21 216.706 1176.5 224.777Z" fill="#F38DB2" stroke="#EA529D" stroke-width="3"/>
<path d="M1538.03 236.091C1540.57 244.208 1541.78 260.003 1538.03 263.853L1483.86 277.631L1442.02 273.233V254.299C1441.55 247.275 1442.63 242.974 1449.75 239.953C1444.92 233.085 1443.23 229.086 1449.19 220.641C1455.45 214.189 1458.47 214.386 1463.54 217.33C1466.37 204.764 1468.58 198.431 1481.2 196.915C1492.43 194.228 1496.64 197.202 1501.61 207.95C1511.62 200.714 1516.84 202.114 1523.13 206.847C1530.52 213.996 1531.43 218.98 1525.89 230.021C1533.24 229.693 1535.43 231.507 1538.03 236.091Z" fill="#F38DB2" stroke="#EA529D" stroke-width="3"/>
<path d="M1501.52 258.336V273.785H1476.13V258.887L1468.96 252.266L1476.13 243.99L1481.65 248.404V232.402H1496.55V245.093L1502.62 239.024L1512 248.404L1501.52 258.336Z" fill="#EA529D" stroke="#EA529D" stroke-width="3"/>
<path d="M1503.17 268.381C1493.56 273.766 1497.61 274.698 1498.42 287.141V292.107H1579.31C1579.32 283.711 1579.32 280.253 1577.32 274.451C1573.97 268.257 1570.49 263.286 1561.66 266.044C1562.55 252.672 1555.04 253.354 1542.35 253.354C1527.45 252.464 1524.14 260.527 1524.69 267.7C1517.52 262.182 1507.58 265.907 1503.17 268.381Z" fill="#F38DB2" stroke="#EA529D" stroke-width="3"/>
<path d="M1415.67 273.667C1411.41 278.047 1410.24 281.075 1409.98 287.348L1409.98 291.59L1504.83 292.147C1503.46 281.82 1501.24 278.079 1495.69 273.689C1487.97 268.528 1484.16 268.147 1478.06 270.912C1477.07 262.434 1474.87 259.311 1466.64 258.028C1459.03 257.463 1456.03 260.419 1453.31 264.986C1451.18 259.823 1448.19 257.209 1439.61 257.676C1430.41 258.781 1426.71 262.331 1425.08 271.752C1420.76 271.011 1418.6 271.185 1415.67 273.667Z" fill="#F38DB2" stroke="#EA529D" stroke-width="3"/>
<path d="M1142.31 266.044C1139 268.251 1136.24 271.01 1136.79 279.287C1129.07 278.735 1126.31 279.839 1125.2 282.046C1124.1 284.253 1123 291.426 1127.96 292.028H1213.66C1214.59 292.028 1214.42 279.788 1212.94 277.632C1209.63 271.01 1202.32 270.158 1192.69 274.371C1192.86 259.497 1190.03 254.413 1177.24 253.956C1169.01 253.549 1165.32 255.44 1163.45 265.543C1154.69 261.864 1150.59 261.63 1142.31 266.044Z" fill="#F38DB2" stroke="#EA529D" stroke-width="3"/>
<path d="M1520.52 80.3249C1530.82 84.7169 1537.82 87.0703 1555.83 75.979C1567.08 88.7117 1573.41 93.5133 1593.85 89.5598C1612.78 82.7504 1615.44 72.4784 1618.3 52.6201C1641.37 57.8173 1652.26 55.1556 1652.52 38.4961C1653.1 17.0611 1646.11 13.0583 1623.73 16.7668C1625.86 0.11619 1620.8 -5.12582 1607.43 -8.22184C1595.42 -10.2939 1589.56 -6.733 1580.27 5.90218C1574.17 -11.2025 1568.56 -17.4857 1551.48 -18C1531.95 -17.4754 1526.24 -9.68875 1517.26 5.90218C1492.28 2.32049 1484.95 6.91744 1483.58 20.5694C1483.04 40.5546 1490.56 43.4975 1507.48 45.0148C1505.33 63.1358 1506.11 72.1052 1520.52 80.3249Z" fill="white" stroke="#FF60A9" stroke-width="2"/>
<path d="M1311.89 11.412C1301.6 10.7857 1294.59 13.7205 1287.45 28.7954C1268.58 25.9933 1263 28.4385 1263 41.2897C1263.17 54.8464 1267.8 58.1726 1279.3 56.5002C1278.47 70.1515 1278.23 77.6795 1291.79 83.6618C1307.02 87.5644 1310.43 84.509 1316.24 78.7727C1321.87 87.7601 1325.87 91.8728 1341.23 90.1806C1355.75 87.8194 1359.07 81.3487 1359.7 67.3649C1383.91 68.2686 1391.13 64.4708 1389.03 53.2408C1386.77 35.68 1380.97 34.079 1363.5 36.4007L1363.52 36.1623C1364.25 27.762 1364.67 22.9789 1353.18 19.5605C1345.29 18.4144 1340.88 19.6669 1333.08 28.7954C1326.77 14.8657 1322.12 10.9266 1311.89 11.412Z" fill="white" stroke="#FF60A9" stroke-width="2"/>
<path d="M1424.4 24.3721C1436.15 25.3392 1440.45 29.86 1445.59 42.2987C1485.7 29.0327 1502.44 40.1258 1504.26 65.6576C1505.64 85.0559 1496.3 86.3194 1473.84 83.041C1474.98 102.61 1467.15 104.34 1453.74 108.03C1440.06 109.581 1434.66 106.004 1426.57 96.6218C1421.82 104.302 1416.5 105.539 1402.13 102.054C1388.34 94.3542 1386.58 87.5443 1388.55 73.2629C1377.72 75.3585 1373.94 71.7164 1370.62 58.0524C1369.58 39.0529 1382.09 42.8452 1397.78 42.2987C1402.44 29.2741 1407.77 24.8345 1424.4 24.3721Z" fill="#FFBDD2" stroke="#FF60A9" stroke-width="3"/>
<path d="M294.567 322.331L283.297 301.307L294.567 297.564C298.023 297.469 300.008 298.6 304.376 299.961C308.04 303.395 311.222 305.429 309.415 314.087C305.887 321.484 303.325 322.568 294.567 322.331Z" fill="white" stroke="#5B253D" stroke-width="2"/>
<path d="M294.32 322.309V296.751C288.723 296.298 286.066 297.241 281.46 299.257C285.618 309.305 294.32 323.311 294.32 322.309Z" fill="#FD90C1" stroke="#5B253D" stroke-width="2"/>
<ellipse cx="269.517" cy="365.535" rx="50.0639" ry="14.6977" fill="#F490B2"/>
<path d="M314.529 198.942C282.118 193.606 262.636 199.856 241.5 220.988V228.797L302.128 260.488C315.573 258.008 320.04 259.726 331.523 264.622C339.111 257.201 344.113 255.653 354.029 256.355C353.342 254.695 360.37 258.51 357.703 250.384C355.037 242.257 354.978 214.496 314.529 198.942Z" fill="#DB7788" stroke="#5B253D" stroke-width="2"/>
<path d="M315.909 191.118C311.723 190.513 308.37 192.169 308.56 197.548L319.124 200.304C320.281 194.997 320.961 193.415 315.909 191.118Z" fill="#BCD89A"/>
<path d="M297.077 253.124L305.804 221.432L312.234 224.188L301.67 264.147L297.077 253.124Z" fill="#BCD89A"/>
<path d="M315.909 191.118C311.723 190.513 308.37 192.169 308.56 197.548L319.124 200.304C320.281 194.997 320.961 193.415 315.909 191.118Z" stroke="#5B253D" stroke-width="2"/>
<path d="M297.077 253.124L305.804 221.432L312.234 224.188L301.67 264.147L297.077 253.124Z" stroke="#5B253D" stroke-width="2"/>
<path d="M272.733 218.186C260.742 215.55 251.109 215.064 241.5 221.021C262.836 198.886 282.443 193.127 314.529 198.515M272.733 218.186C292.648 214.833 300.801 215.839 309.017 223.698M272.733 218.186C284.423 203.214 293.378 198.004 314.529 198.515M309.017 223.698C322.528 223.312 328.218 225.724 335.657 233.803M309.017 223.698L314.529 198.515M335.657 233.803C350.592 237.046 353.243 243.106 358.163 253.632C356.035 230.959 349.247 213.904 314.529 198.515M335.657 233.803C328.58 212.085 322.753 202.989 314.529 198.515" stroke="#5B253D" stroke-width="2"/>
<path d="M331.064 264.147C330.263 247.472 326.331 236.9 318.663 223.729M288.808 216.38C278.979 221.398 274.306 227.732 269.977 236.589" stroke="#5B253D" stroke-width="2"/>
<path d="M333.778 264.488C333.778 265.405 333.499 266.216 333.071 266.787C332.643 267.357 332.091 267.663 331.522 267.663C330.954 267.663 330.401 267.357 329.974 266.787C329.546 266.216 329.267 265.405 329.267 264.488C329.267 263.571 329.546 262.761 329.974 262.19C330.401 261.62 330.954 261.314 331.522 261.314C332.091 261.314 332.643 261.62 333.071 262.19C333.499 262.761 333.778 263.571 333.778 264.488Z" fill="#BCD89A" stroke="#5B253D"/>
<path d="M337.454 236.012C337.454 236.929 337.175 237.74 336.747 238.31C336.319 238.88 335.767 239.186 335.198 239.186C334.63 239.186 334.077 238.88 333.65 238.31C333.222 237.74 332.942 236.929 332.942 236.012C332.942 235.095 333.222 234.284 333.65 233.714C334.077 233.143 334.63 232.837 335.198 232.837C335.767 232.837 336.319 233.143 336.747 233.714C337.175 234.284 337.454 235.095 337.454 236.012Z" fill="#BCD89A" stroke="#5B253D"/>
<path d="M242.805 223.595C242.524 224.468 242.009 225.153 241.426 225.565C240.844 225.976 240.224 226.097 239.683 225.923C239.142 225.748 238.711 225.287 238.479 224.613C238.247 223.939 238.23 223.081 238.512 222.209C238.794 221.336 239.309 220.65 239.891 220.239C240.473 219.828 241.093 219.706 241.634 219.881C242.175 220.056 242.607 220.517 242.838 221.191C243.07 221.865 243.087 222.722 242.805 223.595Z" fill="#BCD89A" stroke="#5B253D"/>
<path d="M273.945 221.589C273.702 222.474 273.219 223.182 272.655 223.619C272.092 224.056 271.478 224.205 270.93 224.055C270.382 223.905 269.93 223.463 269.668 222.801C269.406 222.137 269.351 221.281 269.593 220.397C269.836 219.513 270.319 218.805 270.883 218.367C271.446 217.931 272.06 217.781 272.608 217.932C273.156 218.082 273.608 218.523 273.87 219.186C274.132 219.849 274.187 220.705 273.945 221.589Z" fill="#BCD89A" stroke="#5B253D"/>
<path d="M310.813 224.988C310.813 225.905 310.534 226.716 310.106 227.287C309.679 227.857 309.126 228.163 308.558 228.163C307.989 228.163 307.437 227.857 307.009 227.287C306.581 226.716 306.302 225.905 306.302 224.988C306.302 224.071 306.581 223.261 307.009 222.69C307.437 222.12 307.989 221.814 308.558 221.814C309.126 221.814 309.679 222.12 310.106 222.69C310.534 223.261 310.813 224.071 310.813 224.988Z" fill="#BCD89A" stroke="#5B253D"/>
<path d="M359.5 256.221C359.5 257.138 359.221 257.949 358.793 258.519C358.365 259.09 357.812 259.396 357.244 259.396C356.676 259.396 356.123 259.09 355.695 258.519C355.268 257.949 354.988 257.138 354.988 256.221C354.988 255.304 355.268 254.493 355.695 253.923C356.123 253.353 356.676 253.047 357.244 253.047C357.812 253.047 358.365 253.353 358.793 253.923C359.221 254.493 359.5 255.304 359.5 256.221Z" fill="#BCD89A" stroke="#5B253D"/>
<path d="M304.426 297.559C298.734 296.525 302.054 306.344 297.786 304.794C293.517 303.244 296.108 298.694 297.786 289.291C295.479 291.015 294.5 293.275 289.964 293.942C288.553 299.385 288.058 302.727 290.671 308.411C293.284 314.096 300.873 314.096 304.193 311.512C307.513 308.928 308.695 297.559 304.426 297.559Z" fill="#E14F96" stroke="#5B253D" stroke-width="2"/>
<path d="M262.939 366.761C260.908 371.569 260.143 377.79 250.777 376.346C247.62 376.207 239.027 369.831 229.727 364.022V361.283H226.921L220.372 353.981L226.453 342.57C238.599 347.66 246.886 348.748 266.681 349.873C265.843 349.873 281.875 348.592 288.199 346.221V352.611C298.826 353.567 305.178 368.346 286.796 369.956C268.413 371.565 262.543 370.787 262.939 366.761Z" fill="#DB6E85"/>
<path d="M266.681 349.873L262.939 357.632C262.939 357.632 262.939 365.391 262.939 366.761M266.681 349.873C246.886 348.748 238.599 347.66 226.453 342.57L220.372 353.981L226.921 361.283H229.727V364.022C239.027 369.831 247.62 376.207 250.777 376.346C260.143 377.79 260.908 371.569 262.939 366.761M266.681 349.873C265.843 349.873 281.875 348.592 288.199 346.221V352.611C298.826 353.567 305.178 368.346 286.796 369.956C268.413 371.565 262.543 370.787 262.939 366.761" stroke="#5B253D" stroke-width="3"/>
<path d="M299.695 340.591C301.137 340.793 290.891 315.272 280.591 299.396C260.178 303.218 251.518 302.971 238.61 300.356C229.317 315.156 224.494 323.383 220.831 338.653C252.531 358.424 299.057 344.488 299.695 340.591Z" fill="#FD90C1" stroke="#5B253D" stroke-width="2"/>
<path d="M272.65 332.006C272.65 333.64 271.143 335.14 269.057 335.14C266.971 335.14 265.464 333.64 265.464 332.006C265.464 330.372 266.971 328.872 269.057 328.872C271.143 328.872 272.65 330.372 272.65 332.006Z" fill="#FD90C1" stroke="#5B253D" stroke-width="2"/>
<path d="M268.977 320.064C268.977 321.698 267.47 323.198 265.384 323.198C263.298 323.198 261.791 321.698 261.791 320.064C261.791 318.43 263.298 316.93 265.384 316.93C267.47 316.93 268.977 318.43 268.977 320.064Z" fill="#FD90C1" stroke="#5B253D" stroke-width="2"/>
<path d="M260.91 312.435C267.16 311.503 265.951 308.062 265.383 303.07L279.06 299.396C280.069 305.144 280.599 309.344 272.607 310.388C267.231 310.614 266.742 308.617 265.399 303.135L265.384 303.073C265.343 303.28 246.489 303.819 245.174 302.611C248.009 309.279 250.398 312.914 260.91 312.435Z" fill="#FF93B5"/>
<path d="M265.383 303.07C265.951 308.062 267.16 311.503 260.91 312.435C250.398 312.914 248.009 309.279 245.174 302.611C246.496 303.825 265.526 303.275 265.383 303.07ZM265.383 303.07C266.738 308.601 267.21 310.615 272.607 310.388C280.599 309.344 280.069 305.144 279.06 299.396L265.383 303.07Z" stroke="#5B253D" stroke-width="2"/>
<path d="M236.286 326.919C245.749 319.131 250.092 314.365 244.592 306.443C238.097 300.611 233.896 303.067 225.672 308.305C217.172 314.317 213.825 319.265 216.904 327.385C218.692 331.084 221.317 332.388 227.056 331.573C227.815 334.572 229.81 334.661 232.594 333.9C236.28 332.667 236.741 330.844 236.286 326.919Z" fill="white" stroke="#5B253D" stroke-width="2"/>
<path d="M237.795 326.034C247.921 318.147 250.492 313.437 245.365 306.428C239.266 300.463 232.63 302.799 223.129 310.63L237.795 326.034Z" fill="#FD93B7" stroke="#5B253D" stroke-width="2"/>
<path d="M236.907 237.849C229.934 233.888 223.371 228.014 216.698 230.959C211.904 233.174 210.274 246.708 213.483 258.517C211.515 264.937 211.335 272.137 212.279 277.841C212.96 281.953 214.225 285.289 215.827 286.994C215.84 287.007 215.853 287.021 215.866 287.035C217.313 288.586 219.721 291.743 223.797 294.865C230.578 300.061 241.977 305.162 261.25 302.61C283.781 299.627 294.646 293.887 299.095 284.818C300.286 282.389 301.018 279.721 301.39 276.803C301.537 275.646 301.628 274.451 301.669 273.215C301.631 270.988 301.643 268.944 301.512 266.964C301.149 261.447 299.681 256.427 292.942 249.331C295.035 232.489 295.194 228.287 288.624 226.435C281.069 224.482 276.72 227.829 270.711 238.377C258.446 235.256 251.278 233.882 236.907 237.849Z" fill="white"/>
<path d="M289.268 245.266C290.186 246.185 291.304 247.274 292.942 249.331M213.483 258.517C210.274 246.708 211.904 233.174 216.698 230.959C223.371 228.014 229.934 233.888 236.907 237.849C251.278 233.882 258.446 235.256 270.711 238.377C276.72 227.829 281.069 224.482 288.624 226.435C295.194 228.287 295.035 232.489 292.942 249.331M213.483 258.517C210.097 269.565 212.003 282.923 215.827 286.994C219.652 291.064 230.293 306.71 261.25 302.61C292.207 298.511 301.141 289.209 301.669 273.215C301.525 264.783 302.099 258.974 292.942 249.331M213.483 258.517C214.138 253.137 215.613 262.796 213.483 258.517ZM295.238 269.54C297.535 267.703 306.557 265.037 314.529 265.407M313.611 277.349C306.63 276.014 300.961 276.547 295.698 277.808M310.395 290.668C304.181 286.753 299.435 284.514 295.238 283.779M202 280.564C207.084 278.084 211.888 277.469 218.994 277.808M209.349 290.209C213.363 287.395 217.797 286.241 222.669 285.616M213.483 302.61C217.381 298.768 222.89 295.155 227.262 292.965" stroke="#5B253D" stroke-width="3" stroke-linecap="round"/>
<path d="M266.22 282.401C266.22 283.121 265.799 283.88 264.902 284.502C264.009 285.12 262.72 285.535 261.249 285.535C259.778 285.535 258.49 285.12 257.596 284.502C256.699 283.88 256.278 283.121 256.278 282.401C256.278 281.68 256.699 280.921 257.596 280.3C258.49 279.682 259.778 279.267 261.249 279.267C262.72 279.267 264.009 279.682 264.902 280.3C265.799 280.921 266.22 281.68 266.22 282.401Z" fill="#FFD693" stroke="#5B253D" stroke-width="2"/>
<ellipse cx="235.529" cy="277.349" rx="3.21511" ry="4.59302" fill="#722249"/>
<ellipse cx="282.377" cy="273.675" rx="3.21511" ry="4.59302" fill="#722249"/>
<path d="M245.478 227.744C241.803 227.744 228.059 241.523 234.489 248.413C240.919 255.302 257.844 258.517 257.385 248.413C256.926 238.308 249.152 227.744 245.478 227.744Z" fill="#E15498"/>
<path d="M220.004 264.948C210.75 259.887 204.413 245.218 211.489 243.36C218.565 241.503 220.105 240.926 232.158 249.791C230.329 259.733 228.009 266.461 220.004 264.948Z" fill="#E15498"/>
<path d="M245.478 227.744C241.803 227.744 228.059 241.523 234.489 248.413C240.919 255.302 257.844 258.517 257.385 248.413C256.926 238.308 249.152 227.744 245.478 227.744Z" stroke="#5B253D" stroke-width="2"/>
<path d="M220.004 264.948C210.75 259.887 204.413 245.218 211.489 243.36C218.565 241.503 220.105 240.926 232.158 249.791C230.329 259.733 228.009 266.461 220.004 264.948Z" stroke="#5B253D" stroke-width="2"/>
<circle cx="222.209" cy="253.465" r="3.59302" fill="#E15498" stroke="#5B253D" stroke-width="2"/>
<circle cx="242.419" cy="244.279" r="3.59302" fill="#E15498" stroke="#5B253D" stroke-width="2"/>
<path d="M241.51 249.331C241.51 253.466 237.576 257.058 232.405 257.058C227.234 257.058 223.301 253.466 223.301 249.331C223.301 245.196 227.234 241.604 232.405 241.604C237.576 241.604 241.51 245.196 241.51 249.331Z" fill="#E15498" stroke="#5B253D" stroke-width="2"/>
<ellipse cx="1341.15" cy="346.118" rx="104.146" ry="25.9186" fill="#F590B2"/>
<path d="M1317.66 347.196L1309.18 340.598L1321.43 339.185C1314.7 325.545 1308.44 321.23 1290.8 322.22C1271.48 323.737 1269.91 328.953 1268.18 338.242C1267.79 342.212 1268.86 344.109 1271.95 347.196C1277.48 352.24 1286.76 354.292 1300.7 354.265C1312.87 353.099 1314.05 350.789 1317.66 347.196Z" fill="#EB539C" stroke="#8B2152" stroke-width="2"/>
<path d="M1369.07 353.658L1369.54 344.705L1358.23 350.831C1353.52 345.647 1352.98 341.808 1354.93 337.165C1359.65 329.625 1366.47 324.384 1383.21 323.97C1399.7 324.912 1404.15 331.725 1405.83 340.463C1405.67 349.181 1399.7 352.716 1388.86 353.658H1369.07Z" fill="#E3539B" stroke="#8B2152" stroke-width="2"/>
<path d="M1376.07 291.453L1382.19 292.396C1384.4 289.441 1385.83 288.55 1388.79 288.626C1394.1 288.923 1394.68 290.701 1395.39 294.281C1395.57 297.294 1395.09 298.611 1392.56 299.465C1394.12 300.553 1394.78 301.354 1394.92 303.706C1394.94 317.815 1387.44 317.419 1382.19 317.843C1376.6 318.047 1374.23 318.48 1369.94 317.843C1359.79 314.42 1359.31 310.995 1359.57 303.235C1359.96 299.12 1360.4 296.362 1362.87 294.752C1362.59 288.837 1363.98 285.59 1369 285.327C1371.94 285.37 1373.47 286.929 1376.07 291.453Z" fill="#97CE66" stroke="#6C3038" stroke-width="3"/>
<path d="M1398.3 325.797C1397.7 322.554 1393.35 320.14 1386.99 321.556L1390.76 336.165C1396.24 333.847 1397.96 331.584 1398.3 325.797Z" fill="#97CE66"/>
<path d="M1362.95 339.463C1362.64 339.306 1362.11 338.898 1362.48 338.521L1365.99 337.245L1365.78 337.578L1364.37 338.992L1362.95 339.463Z" fill="#97CE66"/>
<path d="M1367.67 336.636L1365.99 337.245M1365.99 337.245L1362.48 338.521C1362.11 338.898 1362.64 339.306 1362.95 339.463L1364.37 338.992L1365.78 337.578L1365.99 337.245ZM1386.99 321.556C1393.35 320.14 1397.7 322.554 1398.3 325.797C1397.96 331.584 1396.24 333.847 1390.76 336.165L1386.99 321.556Z" stroke="#6C3038" stroke-width="2"/>
<path d="M1370.84 338.578L1369.89 339.311M1369.89 339.311C1369.89 339.311 1367.07 341.406 1366.59 341.877C1366.12 342.348 1366.28 340.306 1366.59 339.992L1368.01 339.521L1369.89 339.311Z" stroke="#6C3038" stroke-width="2"/>
<path d="M1368.48 323.027C1363.16 319.48 1355.55 324.768 1365.65 333.395L1370.36 331.509C1370.36 331.509 1373.8 326.574 1368.48 323.027Z" fill="#97CE66"/>
<path d="M1388.74 338.578C1391.53 342.418 1393.99 345.617 1388.74 341.877V338.578Z" fill="#97CE66"/>
<path d="M1396.75 341.406C1397.37 341.151 1397.51 340.953 1397.23 340.463L1393.96 337.196C1394.2 338.67 1394.44 339.492 1395.34 340.934C1396.03 341.508 1396.41 341.791 1396.75 341.406Z" fill="#97CE66"/>
<path d="M1392.51 335.28C1392.98 335.751 1393.96 337.196 1393.96 337.196M1393.96 337.196L1397.23 340.463C1397.51 340.953 1397.37 341.151 1396.75 341.406C1396.41 341.791 1396.03 341.508 1395.34 340.934C1394.44 339.492 1394.2 338.67 1393.96 337.196ZM1365.65 333.395C1355.55 324.768 1363.16 319.48 1368.48 323.027C1373.8 326.574 1370.36 331.509 1370.36 331.509L1365.65 333.395ZM1388.74 338.578C1391.53 342.418 1393.99 345.617 1388.74 341.877V338.578Z" stroke="#6C3038" stroke-width="2"/>
<path d="M1384.97 317.843C1384.97 317.843 1377.9 318.032 1376.96 318.409C1376.02 318.786 1369.28 330.226 1377.34 336.693C1377.15 338.401 1382.45 339.245 1389.18 338.673C1396.47 331.307 1384.97 317.843 1384.97 317.843Z" fill="#97CE66" stroke="#6C3038" stroke-width="2"/>
<path d="M1372.72 338.578C1364.62 338.607 1361.95 327.752 1371.78 319.257C1373.7 318.465 1374.9 318.271 1377.43 318.786C1379.27 322.835 1379.83 325.294 1381.68 329.343C1379.97 332.184 1381.2 337.918 1380.26 338.107C1379.32 338.296 1380.83 338.55 1372.72 338.578Z" fill="white" stroke="#6C3038" stroke-width="2"/>
<circle cx="1369.42" cy="297.108" r="1.41374" fill="black"/>
<circle cx="1385.44" cy="299.936" r="1.41374" fill="black"/>
<path d="M1378.79 310.303C1378.79 311.423 1378.27 312.467 1377.5 313.246C1376.72 314.04 1375.78 314.447 1375.08 314.447C1374.4 314.447 1373.6 314.064 1372.93 313.296C1372.28 312.54 1371.84 311.483 1371.84 310.303C1371.84 309.122 1372.28 308.041 1372.94 307.263C1373.61 306.471 1374.41 306.08 1375.08 306.08C1375.77 306.08 1376.7 306.496 1377.5 307.313C1378.27 308.114 1378.79 309.181 1378.79 310.303Z" fill="#FF8DC4" stroke="#6C3038" stroke-width="2"/>
<path d="M1310.98 325.289C1310.29 322.063 1305.88 319.766 1299.56 321.351L1301.09 336.941C1306.51 334.478 1310.79 331.083 1310.98 325.289Z" fill="#97CE66"/>
<path d="M1276.01 339.893C1275.69 339.745 1275.15 339.351 1275.52 338.964L1278.99 337.595L1278.79 337.934L1277.41 339.385L1276.01 339.893Z" fill="#97CE66"/>
<path d="M1280.65 336.941L1278.99 337.595M1278.99 337.595L1275.52 338.964C1275.15 339.351 1275.69 339.745 1276.01 339.893L1277.41 339.385L1278.79 337.934L1278.99 337.595ZM1299.56 321.351C1305.88 319.766 1310.29 322.063 1310.98 325.289C1310.79 331.083 1306.51 334.478 1301.09 336.941L1299.56 321.351Z" stroke="#6C3038" stroke-width="2"/>
<path d="M1283.87 338.798L1282.94 339.556M1282.94 339.556C1282.94 339.556 1280.17 341.725 1279.72 342.209C1279.26 342.693 1279.36 340.647 1279.67 340.325L1281.07 339.816L1282.94 339.556Z" stroke="#6C3038" stroke-width="2"/>
<path d="M1280.63 323.03C1275.21 319.627 1267.75 325.116 1278.08 333.47L1282.74 331.459C1282.74 331.459 1286.04 326.434 1280.63 323.03Z" fill="#97CE66"/>
<path d="M1301.3 338.035C1304.19 341.799 1306.73 344.932 1301.38 341.333L1301.3 338.035Z" fill="#97CE66"/>
<path d="M1309.38 340.648C1309.99 340.377 1310.12 340.175 1309.83 339.693L1306.47 336.514C1306.76 337.981 1307.02 338.797 1307.95 340.215C1308.66 340.769 1309.05 341.042 1309.38 340.648Z" fill="#97CE66"/>
<path d="M1304.98 334.637C1305.46 335.096 1306.47 336.514 1306.47 336.514M1306.47 336.514L1309.83 339.693C1310.12 340.175 1309.99 340.377 1309.38 340.648C1309.05 341.042 1308.66 340.769 1307.95 340.215C1307.02 338.797 1306.76 337.981 1306.47 336.514ZM1278.08 333.47C1267.75 325.116 1275.21 319.627 1280.63 323.03C1286.04 326.434 1282.74 331.459 1282.74 331.459L1278.08 333.47ZM1301.3 338.035C1304.19 341.799 1306.73 344.932 1301.38 341.333L1301.3 338.035Z" stroke="#6C3038" stroke-width="2"/>
<path d="M1278.83 328.504C1280.68 320.608 1283.93 317.802 1292.49 314.838C1300.92 315.883 1303 318.444 1303.8 325.206C1303.72 330.798 1303.39 333.623 1300.03 335.573C1295.26 338.549 1292.44 339.084 1287.31 339.343C1279.21 337.718 1278.96 334.467 1278.83 328.504Z" fill="#97CE66" stroke="#6C3038" stroke-width="2"/>
<path d="M1291.66 339.049C1283.56 339.294 1281.6 324.24 1291.19 315.486C1293.09 314.644 1294.02 314.544 1297.32 315.958C1308.44 321.515 1305.02 335.213 1297.79 337.635C1296.54 338.054 1295.43 338.578 1295.43 338.578C1294.44 338.63 1293.51 338.993 1291.66 339.049Z" fill="white" stroke="#6C3038" stroke-width="2"/>
<path d="M1297.21 293.14L1288.88 295.495C1286.31 290.834 1284.01 290.072 1278.79 291.12C1275.87 293.998 1275.2 295.853 1277.61 300.045L1276.94 302.793C1275.03 321.255 1285.38 321.311 1296.29 321.036C1316.21 318.086 1311.16 306.351 1306.97 298.889C1310.05 293.605 1309.18 291.536 1305.06 288.733C1299.71 287.459 1297.88 288.281 1297.21 293.14Z" fill="#97CE66" stroke="#6C3038" stroke-width="3"/>
<path d="M1296.81 308.073C1294.32 307.728 1293.08 308.101 1291.11 309.606C1291.71 313.305 1293.9 316.172 1295.96 315.624C1298.02 315.075 1299.19 312.435 1296.81 308.073Z" fill="#E65495" stroke="#6C3038" stroke-width="2"/>
<circle cx="1285.58" cy="302.801" r="1.41374" transform="rotate(-1.52909 1285.58 302.801)" fill="black"/>
<circle cx="1299.71" cy="300.916" r="1.41374" transform="rotate(-1.52909 1299.71 300.916)" fill="black"/>
<rect x="456.5" y="109.5" width="671" height="178" rx="47.5" fill="#EA6CA4" fill-opacity="0.6" stroke="#6C3038" stroke-width="3"/>
<path d="M516.15 197.2H522.6C522.6 201.733 521.467 205.217 519.2 207.65C516.933 210.083 513.733 211.3 509.6 211.3C500.5 211.3 495.95 205.95 495.95 195.25V192.25C495.95 183.817 498.283 178.533 502.95 176.4C504.783 175.533 507 175.1 509.6 175.1C513.4 175.1 516.483 176.15 518.85 178.25C521.25 180.317 522.45 183.317 522.45 187.25H515.95C515.583 185.283 514.933 183.8 514 182.8C513.067 181.8 511.6 181.3 509.6 181.3C507.267 181.3 505.533 182.033 504.4 183.5C503.6 184.533 503.133 186.3 503 188.8C502.933 189.6 502.9 190.683 502.9 192.05V195.15C502.9 198.983 503.433 201.6 504.5 203C505.6 204.4 507.3 205.1 509.6 205.1C511.933 205.1 513.533 204.467 514.4 203.2C515.3 201.9 515.883 199.9 516.15 197.2ZM547.671 211H543.321L541.321 207.55L534.371 211.3C530.504 211.3 527.904 209.9 526.571 207.1C525.904 205.733 525.438 204.267 525.171 202.7C524.938 201.1 524.821 199.45 524.821 197.75C524.821 196.017 524.838 194.75 524.871 193.95C524.904 193.117 524.988 192.167 525.121 191.1C525.254 190 525.438 189.083 525.671 188.35C525.938 187.617 526.304 186.867 526.771 186.1C527.238 185.3 527.804 184.667 528.471 184.2C529.971 183.167 531.921 182.65 534.321 182.65H541.171L547.671 182.25V211ZM541.171 201.9V188.5H536.221C534.388 188.5 533.104 189.2 532.371 190.6C531.671 192 531.321 194.1 531.321 196.9C531.321 199.667 531.654 201.617 532.321 202.75C533.021 203.883 534.321 204.45 536.221 204.45L541.171 201.9ZM560.98 211L554.48 211.05V173.4H560.98V211ZM582.563 200.55L588.463 200.5C588.429 200.767 588.396 201.25 588.363 201.95C588.329 202.65 588.296 203.133 588.263 203.4C588.263 203.633 588.229 204.017 588.163 204.55C588.096 205.083 588.013 205.483 587.913 205.75C587.846 205.983 587.746 206.3 587.613 206.7C587.013 208.433 585.379 209.8 582.713 210.8C581.013 211.4 579.229 211.7 577.363 211.7C575.529 211.7 573.863 211.4 572.363 210.8C570.863 210.2 569.679 209.433 568.813 208.5C566.846 206.433 565.863 202.567 565.863 196.9C565.863 191.2 566.846 187.317 568.813 185.25C569.679 184.317 570.863 183.55 572.363 182.95C573.863 182.35 575.529 182.05 577.363 182.05C580.963 182.05 583.696 182.95 585.563 184.75C587.429 186.55 588.363 189.05 588.363 192.25H582.463C582.463 190.783 582.096 189.7 581.363 189C580.629 188.267 579.263 187.9 577.263 187.9C575.296 187.9 573.979 188.517 573.313 189.75C572.679 190.983 572.363 192.833 572.363 195.3V197.9C572.363 201.867 573.129 204.3 574.663 205.2C575.363 205.633 576.279 205.85 577.413 205.85C578.546 205.85 579.463 205.75 580.163 205.55C580.896 205.317 581.413 204.933 581.713 204.4C582.046 203.867 582.263 203.35 582.363 202.85C582.463 202.317 582.529 201.55 582.563 200.55ZM615.24 211H610.39L608.89 207.6L600.89 211.3C598.657 211.3 596.707 210.483 595.04 208.85C593.407 207.183 592.59 204.767 592.59 201.6V182.45H599.09V200.2C599.09 203.367 600.357 204.95 602.89 204.95L608.74 201.8V182.45H615.24V211ZM628.802 211L622.302 211.05V173.4H628.802V211ZM655.435 211H651.085L649.085 207.55L642.135 211.3C638.268 211.3 635.668 209.9 634.335 207.1C633.668 205.733 633.201 204.267 632.935 202.7C632.701 201.1 632.585 199.45 632.585 197.75C632.585 196.017 632.601 194.75 632.635 193.95C632.668 193.117 632.751 192.167 632.885 191.1C633.018 190 633.201 189.083 633.435 188.35C633.701 187.617 634.068 186.867 634.535 186.1C635.001 185.3 635.568 184.667 636.235 184.2C637.735 183.167 639.685 182.65 642.085 182.65H648.935L655.435 182.25V211ZM648.935 201.9V188.5H643.985C642.151 188.5 640.868 189.2 640.135 190.6C639.435 192 639.085 194.1 639.085 196.9C639.085 199.667 639.418 201.617 640.085 202.75C640.785 203.883 642.085 204.45 643.985 204.45L648.935 201.9ZM683.244 211H678.894L676.894 207.55L669.944 211.3C666.077 211.3 663.477 209.9 662.144 207.1C661.477 205.733 661.01 204.267 660.744 202.7C660.51 201.1 660.394 199.45 660.394 197.75C660.394 196.017 660.41 194.75 660.444 193.95C660.477 193.117 660.56 192.167 660.694 191.1C660.827 190 661.01 189.083 661.244 188.35C661.51 187.617 661.877 186.867 662.344 186.1C662.81 185.3 663.377 184.667 664.044 184.2C665.544 183.167 667.494 182.65 669.894 182.65H676.744V173.4H683.244V211ZM676.744 201.9V188.5H671.794C669.96 188.5 668.677 189.2 667.944 190.6C667.244 192 666.894 194.1 666.894 196.9C666.894 199.667 667.227 201.617 667.894 202.75C668.594 203.883 669.894 204.45 671.794 204.45L676.744 201.9ZM705.971 198.1V195.5C705.971 193.033 705.604 191.15 704.871 189.85C704.171 188.55 702.688 187.9 700.421 187.9C696.754 187.9 694.921 190.367 694.921 195.3V197.9C694.921 203.2 696.754 205.85 700.421 205.85C702.788 205.85 704.338 204.967 705.071 203.2C705.671 201.8 705.971 200.1 705.971 198.1ZM712.471 196.6C712.471 202.767 711.304 206.9 708.971 209C707.004 210.8 704.154 211.7 700.421 211.7C695.654 211.7 692.438 210.3 690.771 207.5C689.204 204.933 688.421 201.3 688.421 196.6C688.421 192.2 689.204 188.75 690.771 186.25C692.504 183.45 695.654 182.05 700.221 182.05C704.821 182.05 708.004 183.283 709.771 185.75C711.571 188.183 712.471 191.8 712.471 196.6ZM732.82 182.55L731.02 188.95C730.52 188.75 729.953 188.65 729.32 188.65C727.653 188.65 725.603 189.367 723.17 190.8V211H716.67V182.45H721.52L723.02 184.95L729.92 182.1C730.253 182.067 730.703 182.05 731.27 182.05C731.836 182.05 732.353 182.217 732.82 182.55ZM756.802 211H752.452L750.452 207.55L743.502 211.3C739.635 211.3 737.035 209.9 735.702 207.1C735.035 205.733 734.569 204.267 734.302 202.7C734.069 201.1 733.952 199.45 733.952 197.75C733.952 196.017 733.969 194.75 734.002 193.95C734.035 193.117 734.119 192.167 734.252 191.1C734.385 190 734.569 189.083 734.802 188.35C735.069 187.617 735.435 186.867 735.902 186.1C736.369 185.3 736.935 184.667 737.602 184.2C739.102 183.167 741.052 182.65 743.452 182.65H750.302L756.802 182.25V211ZM750.302 201.9V188.5H745.352C743.519 188.5 742.235 189.2 741.502 190.6C740.802 192 740.452 194.1 740.452 196.9C740.452 199.667 740.785 201.617 741.452 202.75C742.152 203.883 743.452 204.45 745.352 204.45L750.302 201.9ZM796.232 211H791.882L789.882 207.55L782.932 211.3C779.065 211.3 776.465 209.9 775.132 207.1C774.465 205.733 773.999 204.267 773.732 202.7C773.499 201.1 773.382 199.45 773.382 197.75C773.382 196.017 773.399 194.75 773.432 193.95C773.465 193.117 773.549 192.167 773.682 191.1C773.815 190 773.999 189.083 774.232 188.35C774.499 187.617 774.865 186.867 775.332 186.1C775.799 185.3 776.365 184.667 777.032 184.2C778.532 183.167 780.482 182.65 782.882 182.65H789.732V173.4H796.232V211ZM789.732 201.9V188.5H784.782C782.949 188.5 781.665 189.2 780.932 190.6C780.232 192 779.882 194.1 779.882 196.9C779.882 199.667 780.215 201.617 780.882 202.75C781.582 203.883 782.882 204.45 784.782 204.45L789.732 201.9ZM823.159 211H818.809L816.809 207.55L809.859 211.3C805.993 211.3 803.393 209.9 802.059 207.1C801.393 205.733 800.926 204.267 800.659 202.7C800.426 201.1 800.309 199.45 800.309 197.75C800.309 196.017 800.326 194.75 800.359 193.95C800.393 193.117 800.476 192.167 800.609 191.1C800.743 190 800.926 189.083 801.159 188.35C801.426 187.617 801.793 186.867 802.259 186.1C802.726 185.3 803.293 184.667 803.959 184.2C805.459 183.167 807.409 182.65 809.809 182.65H816.659L823.159 182.25V211ZM816.659 201.9V188.5H811.709C809.876 188.5 808.593 189.2 807.859 190.6C807.159 192 806.809 194.1 806.809 196.9C806.809 199.667 807.143 201.617 807.809 202.75C808.509 203.883 809.809 204.45 811.709 204.45L816.659 201.9ZM868.789 211H861.839V196.6H848.789V211H841.839V175.4H848.789V190.45H861.839V175.4H868.789V211ZM897.468 198.25H880.818C880.818 200.85 881.218 202.75 882.018 203.95C882.851 205.15 884.501 205.75 886.968 205.75C888.568 205.75 889.751 205.25 890.518 204.25C891.285 203.217 891.668 202.233 891.668 201.3H897.518C897.518 204.867 896.551 207.483 894.618 209.15C892.718 210.817 890.185 211.65 887.018 211.65C883.885 211.65 881.451 211.2 879.718 210.3C876.151 208.467 874.368 203.6 874.368 195.7C874.368 191 875.385 187.567 877.418 185.4C879.451 183.2 882.551 182.1 886.718 182.1C893.951 182.1 897.568 186.117 897.568 194.15C897.568 195.017 897.535 196.383 897.468 198.25ZM880.968 193.8H891.668C891.668 191.6 891.251 190 890.418 189C889.585 188 888.301 187.5 886.568 187.5C884.868 187.5 883.501 188.017 882.468 189.05C881.468 190.05 880.968 191.633 880.968 193.8ZM909.711 211L903.211 211.05V173.4H909.711V211ZM922.943 211L916.443 211.05V173.4H922.943V211ZM945.375 198.1V195.5C945.375 193.033 945.009 191.15 944.275 189.85C943.575 188.55 942.092 187.9 939.825 187.9C936.159 187.9 934.325 190.367 934.325 195.3V197.9C934.325 203.2 936.159 205.85 939.825 205.85C942.192 205.85 943.742 204.967 944.475 203.2C945.075 201.8 945.375 200.1 945.375 198.1ZM951.875 196.6C951.875 202.767 950.709 206.9 948.375 209C946.409 210.8 943.559 211.7 939.825 211.7C935.059 211.7 931.842 210.3 930.175 207.5C928.609 204.933 927.825 201.3 927.825 196.6C927.825 192.2 928.609 188.75 930.175 186.25C931.909 183.45 935.059 182.05 939.625 182.05C944.225 182.05 947.409 183.283 949.175 185.75C950.975 188.183 951.875 191.8 951.875 196.6ZM985.245 192.15L997.495 211H989.395L980.995 197.55L976.145 204.05V211H969.195V175.4H976.145V195.3L989.595 175.4H996.595L985.245 192.15ZM1005.25 171.55C1006.81 171.55 1007.83 171.8 1008.3 172.3C1008.76 172.767 1009 173.783 1009 175.35C1009 176.883 1008.75 177.9 1008.25 178.4C1007.78 178.867 1006.76 179.1 1005.2 179.1C1003.66 179.1 1002.65 178.85 1002.15 178.35C1001.68 177.85 1001.45 176.833 1001.45 175.3C1001.45 173.767 1001.68 172.767 1002.15 172.3C1002.65 171.8 1003.68 171.55 1005.25 171.55ZM1008.45 211H1001.95V183.5H1008.45V211ZM1027.92 211H1023.87C1021.4 211 1019.52 210.267 1018.22 208.8C1016.95 207.333 1016.32 205.583 1016.32 203.55V188.55H1013.57V183.6H1016.32V178H1022.82V183.6H1027.42V188.55H1022.82V203.15C1022.82 204.717 1023.57 205.5 1025.07 205.5H1027.92V211ZM1045.49 211H1041.44C1038.98 211 1037.09 210.267 1035.79 208.8C1034.53 207.333 1033.89 205.583 1033.89 203.55V188.55H1031.14V183.6H1033.89V178H1040.39V183.6H1044.99V188.55H1040.39V203.15C1040.39 204.717 1041.14 205.5 1042.64 205.5H1045.49V211ZM1071.72 182.45L1060.87 214.2C1060.37 215.633 1059.72 216.75 1058.92 217.55C1057.59 218.883 1055.72 219.55 1053.32 219.55H1050.27V213.7H1052.27C1053.21 213.7 1053.89 213.533 1054.32 213.2C1054.79 212.9 1055.19 212.283 1055.52 211.35L1056.02 209.95L1047.42 182.45H1054.27L1059.37 202.3L1064.87 182.45H1071.72ZM1085.58 175.4L1084.08 197C1083.95 197.933 1083.61 198.667 1083.08 199.2C1082.58 199.7 1082.01 199.95 1081.38 199.95C1080.75 199.95 1080.18 199.683 1079.68 199.15C1079.21 198.617 1078.98 197.9 1078.98 197L1077.53 175.4H1085.58ZM1084.88 204.3C1085.41 204.8 1085.68 205.883 1085.68 207.55C1085.68 209.217 1085.41 210.317 1084.88 210.85C1084.38 211.383 1083.3 211.65 1081.63 211.65C1079.96 211.65 1078.86 211.383 1078.33 210.85C1077.8 210.317 1077.53 209.217 1077.53 207.55C1077.53 205.883 1077.8 204.8 1078.33 204.3C1078.86 203.767 1079.96 203.5 1081.63 203.5C1083.3 203.5 1084.38 203.767 1084.88 204.3Z" fill="black"/>
<path d="M698.55 255H694.525L691.05 248.4H688.55V255H685.075V241.025C685.075 239.692 685.383 238.725 686 238.125C686.617 237.508 687.65 237.2 689.1 237.2H692.05C693.817 237.2 695.217 237.742 696.25 238.825C697.3 239.892 697.825 241.25 697.825 242.9C697.825 244.1 697.508 245.142 696.875 246.025C696.258 246.892 695.492 247.492 694.575 247.825L698.55 255ZM691.825 245.5C692.558 245.5 693.158 245.25 693.625 244.75C694.108 244.233 694.35 243.6 694.35 242.85C694.35 242.083 694.117 241.467 693.65 241C693.2 240.533 692.592 240.3 691.825 240.3H690.1C689.067 240.3 688.55 240.825 688.55 241.875V245.5H691.825ZM711.007 255H708.832L707.832 253.275L704.357 255.15C702.424 255.15 701.124 254.45 700.457 253.05C700.124 252.367 699.891 251.633 699.757 250.85C699.641 250.05 699.582 249.225 699.582 248.375C699.582 247.508 699.591 246.875 699.607 246.475C699.624 246.058 699.666 245.583 699.732 245.05C699.799 244.5 699.891 244.042 700.007 243.675C700.141 243.308 700.324 242.933 700.557 242.55C700.791 242.15 701.074 241.833 701.407 241.6C702.157 241.083 703.132 240.825 704.332 240.825H707.757L711.007 240.625V255ZM707.757 250.45V243.75H705.282C704.366 243.75 703.724 244.1 703.357 244.8C703.007 245.5 702.832 246.55 702.832 247.95C702.832 249.333 702.999 250.308 703.332 250.875C703.682 251.442 704.332 251.725 705.282 251.725L707.757 250.45ZM724.962 240.725L719.537 256.6C719.287 257.317 718.962 257.875 718.562 258.275C717.895 258.942 716.962 259.275 715.762 259.275H714.237V256.35H715.237C715.704 256.35 716.045 256.267 716.262 256.1C716.495 255.95 716.695 255.642 716.862 255.175L717.112 254.475L712.812 240.725H716.237L718.787 250.65L721.537 240.725H724.962ZM735.915 255H728.14C727.29 255 726.632 254.825 726.165 254.475C725.715 254.108 725.49 253.6 725.49 252.95C725.49 252.3 725.765 251.617 726.315 250.9L732.265 243.525H726.315V240.725H736.165V243.2L729.065 252.2H735.915V255ZM748.654 255H746.479L745.479 253.275L742.004 255.15C740.071 255.15 738.771 254.45 738.104 253.05C737.771 252.367 737.537 251.633 737.404 250.85C737.287 250.05 737.229 249.225 737.229 248.375C737.229 247.508 737.237 246.875 737.254 246.475C737.271 246.058 737.312 245.583 737.379 245.05C737.446 244.5 737.537 244.042 737.654 243.675C737.787 243.308 737.971 242.933 738.204 242.55C738.437 242.15 738.721 241.833 739.054 241.6C739.804 241.083 740.779 240.825 741.979 240.825H745.404L748.654 240.625V255ZM745.404 250.45V243.75H742.929C742.012 243.75 741.371 244.1 741.004 244.8C740.654 245.5 740.479 246.55 740.479 247.95C740.479 249.333 740.646 250.308 740.979 250.875C741.329 251.442 741.979 251.725 742.929 251.725L745.404 250.45ZM769.219 255H763.919C761.919 255 760.469 254.617 759.569 253.85C758.686 253.067 758.244 251.8 758.244 250.05V237.2H761.719V250.05C761.719 250.75 761.877 251.233 762.194 251.5C762.511 251.767 763.086 251.9 763.919 251.9H769.219V255ZM782.414 255H779.989L779.239 253.3L775.239 255.15C774.122 255.15 773.147 254.742 772.314 253.925C771.497 253.092 771.089 251.883 771.089 250.3V240.725H774.339V249.6C774.339 251.183 774.972 251.975 776.239 251.975L779.164 250.4V240.725H782.414V255ZM795.895 255H793.72L792.72 253.275L789.245 255.15C787.312 255.15 786.012 254.45 785.345 253.05C785.012 252.367 784.778 251.633 784.645 250.85C784.528 250.05 784.47 249.225 784.47 248.375C784.47 247.508 784.478 246.875 784.495 246.475C784.512 246.058 784.553 245.583 784.62 245.05C784.687 244.5 784.778 244.042 784.895 243.675C785.028 243.308 785.212 242.933 785.445 242.55C785.678 242.15 785.962 241.833 786.295 241.6C787.045 241.083 788.02 240.825 789.22 240.825H792.645L795.895 240.625V255ZM792.645 250.45V243.75H790.17C789.253 243.75 788.612 244.1 788.245 244.8C787.895 245.5 787.72 246.55 787.72 247.95C787.72 249.333 787.887 250.308 788.22 250.875C788.57 251.442 789.22 251.725 790.17 251.725L792.645 250.45ZM810.5 255H807.25V245.875C807.25 245.058 807.083 244.5 806.75 244.2C806.416 243.9 805.95 243.75 805.35 243.75L802.425 244.975V255H799.175V240.725H801.6L802.35 242.425L806.35 240.575C807.466 240.575 808.433 240.992 809.25 241.825C810.083 242.642 810.5 243.842 810.5 245.425V255ZM823.581 255H821.406L820.406 253.275L816.931 255.15C814.997 255.15 813.697 254.45 813.031 253.05C812.697 252.367 812.464 251.633 812.331 250.85C812.214 250.05 812.156 249.225 812.156 248.375C812.156 247.508 812.164 246.875 812.181 246.475C812.197 246.058 812.239 245.583 812.306 245.05C812.372 244.5 812.464 244.042 812.581 243.675C812.714 243.308 812.897 242.933 813.131 242.55C813.364 242.15 813.647 241.833 813.981 241.6C814.731 241.083 815.706 240.825 816.906 240.825H820.331L823.581 240.625V255ZM820.331 250.45V243.75H817.856C816.939 243.75 816.297 244.1 815.931 244.8C815.581 245.5 815.406 246.55 815.406 247.95C815.406 249.333 815.572 250.308 815.906 250.875C816.256 251.442 816.906 251.725 817.856 251.725L820.331 250.45ZM837.096 256.85H833.846V235.35H837.096V256.85ZM859.296 240.3H854.521V255H851.046V240.3H846.296V237.2H859.296V240.3ZM872.454 248.625H864.129C864.129 249.925 864.329 250.875 864.729 251.475C865.145 252.075 865.97 252.375 867.204 252.375C868.004 252.375 868.595 252.125 868.979 251.625C869.362 251.108 869.554 250.617 869.554 250.15H872.479C872.479 251.933 871.995 253.242 871.029 254.075C870.079 254.908 868.812 255.325 867.229 255.325C865.662 255.325 864.445 255.1 863.579 254.65C861.795 253.733 860.904 251.3 860.904 247.35C860.904 245 861.412 243.283 862.429 242.2C863.445 241.1 864.995 240.55 867.079 240.55C870.695 240.55 872.504 242.558 872.504 246.575C872.504 247.008 872.487 247.692 872.454 248.625ZM864.204 246.4H869.554C869.554 245.3 869.345 244.5 868.929 244C868.512 243.5 867.87 243.25 867.004 243.25C866.154 243.25 865.47 243.508 864.954 244.025C864.454 244.525 864.204 245.317 864.204 246.4ZM882.75 249.775L885.7 249.75C885.683 249.883 885.667 250.125 885.65 250.475C885.633 250.825 885.617 251.067 885.6 251.2C885.6 251.317 885.583 251.508 885.55 251.775C885.517 252.042 885.475 252.242 885.425 252.375C885.392 252.492 885.342 252.65 885.275 252.85C884.975 253.717 884.158 254.4 882.825 254.9C881.975 255.2 881.083 255.35 880.15 255.35C879.233 255.35 878.4 255.2 877.65 254.9C876.9 254.6 876.308 254.217 875.875 253.75C874.892 252.717 874.4 250.783 874.4 247.95C874.4 245.1 874.892 243.158 875.875 242.125C876.308 241.658 876.9 241.275 877.65 240.975C878.4 240.675 879.233 240.525 880.15 240.525C881.95 240.525 883.317 240.975 884.25 241.875C885.183 242.775 885.65 244.025 885.65 245.625H882.7C882.7 244.892 882.517 244.35 882.15 244C881.783 243.633 881.1 243.45 880.1 243.45C879.117 243.45 878.458 243.758 878.125 244.375C877.808 244.992 877.65 245.917 877.65 247.15V248.45C877.65 250.433 878.033 251.65 878.8 252.1C879.15 252.317 879.608 252.425 880.175 252.425C880.742 252.425 881.2 252.375 881.55 252.275C881.917 252.158 882.175 251.967 882.325 251.7C882.492 251.433 882.6 251.175 882.65 250.925C882.7 250.658 882.733 250.275 882.75 249.775ZM899.439 255H896.189V246.05C896.189 244.517 895.589 243.75 894.389 243.75L891.289 244.975V255H888.039V236.2H891.289V242.425L895.414 240.575C896.881 240.575 897.914 240.992 898.514 241.825C899.131 242.658 899.439 243.825 899.439 245.325V255Z" fill="black"/>
</g>
<defs>
<clipPath id="clip0_78_123">
<rect width="1584" height="396" fill="white"/>
</clipPath>
</defs>
</svg>
