<svg width="1316" height="150" viewBox="0 0 1316 150" fill="none" xmlns="http://www.w3.org/2000/svg">
<path d="M238.024 122.5C247.504 126.542 253.948 128.709 270.524 118.5C280.88 130.219 286.705 134.639 305.524 131C322.944 124.733 325.395 115.278 328.024 97C349.257 101.784 359.28 99.3337 359.524 84C360.059 64.2709 353.622 60.5866 333.024 64C334.983 48.6745 330.331 43.8496 318.024 41C306.966 39.0929 301.572 42.3704 293.024 54C287.41 38.2565 282.247 32.4733 266.524 32C248.546 32.4828 243.294 39.6498 235.024 54C212.037 50.7033 205.289 54.9345 204.024 67.5C203.534 85.8948 210.447 88.6034 226.024 90C224.045 106.679 224.767 114.934 238.024 122.5Z" fill="white" stroke="#FF60A9" stroke-width="2"/>
<path d="M46 59.0714C36.5255 58.4949 30.0802 61.1962 23.5 75.0714C6.13973 72.4923 0.99734 74.7429 1 86.5714C1.15914 99.0492 5.41859 102.111 16 100.571C15.2345 113.136 15.0224 120.065 27.5 125.571C41.5203 129.163 44.6592 126.351 50 121.071C55.1837 129.344 58.8663 133.129 73 131.571C86.3708 129.398 89.4228 123.442 90 110.571C112.292 111.403 118.931 107.908 117 97.5714C114.92 81.408 109.577 79.9345 93.5 82.0714L93.5191 81.852C94.1941 74.1202 94.5783 69.7178 84 66.5714C76.7404 65.5165 72.6842 66.6694 65.5 75.0714C59.6907 62.2502 55.4106 58.6246 46 59.0714Z" fill="white" stroke="#FF60A9" stroke-width="2"/>
<path d="M149.556 71C160.371 71.8902 164.324 76.0512 169.056 87.5C205.977 75.2897 221.381 85.5 223.056 109C224.329 126.855 215.736 128.017 195.056 125C196.112 143.011 188.904 144.604 176.556 148C163.966 149.427 159 146.136 151.556 137.5C147.176 144.569 142.287 145.708 129.056 142.5C116.367 135.413 114.745 129.145 116.556 116C106.587 117.929 103.111 114.577 100.056 102C99.0974 84.5125 110.615 88.003 125.056 87.5C129.338 75.512 134.251 71.4256 149.556 71Z" fill="#FFBDD2" stroke="#FF60A9" stroke-width="3"/>
<path d="M1193.02 91.5C1202.5 95.5425 1208.95 97.7086 1225.52 87.5C1235.88 99.2193 1241.7 103.639 1260.52 100C1277.94 93.7325 1280.4 84.2779 1283.02 66C1304.26 70.7836 1314.28 68.3337 1314.52 53C1315.06 33.2709 1308.62 29.5866 1288.02 33C1289.98 17.6745 1285.33 12.8496 1273.02 10C1261.97 8.09287 1256.57 11.3704 1248.02 23C1242.41 7.25655 1237.25 1.47333 1221.52 1C1203.55 1.48281 1198.29 8.64983 1190.02 23C1167.04 19.7033 1160.29 23.9345 1159.02 36.5C1158.53 54.8948 1165.45 57.6034 1181.02 59C1179.05 75.6789 1179.77 83.9344 1193.02 91.5Z" fill="white" stroke="#FF60A9" stroke-width="2"/>
<path d="M1001 28.0714C991.526 27.4949 985.08 30.1962 978.5 44.0714C961.14 41.4923 955.997 43.7429 956 55.5714C956.159 68.0492 960.419 71.1107 971 69.5714C970.234 82.1363 970.022 89.0652 982.5 94.5714C996.52 98.1635 999.659 95.3512 1005 90.0714C1010.18 98.3436 1013.87 102.129 1028 100.571C1041.37 98.3981 1044.42 92.4424 1045 79.5714C1067.29 80.4032 1073.93 76.9077 1072 66.5714C1069.92 50.408 1064.58 48.9345 1048.5 51.0714L1048.52 50.852C1049.19 43.1202 1049.58 38.7178 1039 35.5714C1031.74 34.5165 1027.68 35.6694 1020.5 44.0714C1014.69 31.2502 1010.41 27.6246 1001 28.0714Z" fill="white" stroke="#FF60A9" stroke-width="2"/>
<path d="M1104.56 40C1115.37 40.8902 1119.32 45.0512 1124.06 56.5C1160.98 44.2897 1176.38 54.5 1178.06 78C1179.33 95.8545 1170.74 97.0174 1150.06 94C1151.11 112.011 1143.9 113.604 1131.56 117C1118.97 118.427 1114 115.136 1106.56 106.5C1102.18 113.569 1097.29 114.708 1084.06 111.5C1071.37 104.413 1069.74 98.1449 1071.56 85C1061.59 86.9288 1058.11 83.5766 1055.06 71C1054.1 53.5125 1065.61 57.003 1080.06 56.5C1084.34 44.512 1089.25 40.4256 1104.56 40Z" fill="#FFBDD2" stroke="#FF60A9" stroke-width="3"/>
</svg>
