<svg width="126" height="88" viewBox="0 0 126 88" fill="none" xmlns="http://www.w3.org/2000/svg">
<path d="M40.0001 15C32.409 10.6888 25.2647 4.2939 18.0001 7.5C12.7815 9.911 11.0068 24.6441 14.4999 37.5C12.3585 44.4886 12.1618 52.3262 13.1897 58.5359C13.9307 63.0128 15.3083 66.6436 17.0526 68.5C17.0664 68.5147 17.0802 68.5295 17.0941 68.5444C18.6702 70.2332 21.2916 73.6698 25.7279 77.0688C33.1105 82.7255 45.5191 88.2784 66.5 85.5C91.0269 82.252 102.855 76.0042 107.698 66.1312C108.995 63.4868 109.791 60.5824 110.196 57.4059C110.357 56.1469 110.456 54.8452 110.5 53.5C110.459 51.0756 110.472 48.8504 110.33 46.6948C109.935 40.6895 108.336 35.2248 101 27.5C103.278 9.16504 103.452 4.59155 96.2997 2.57508C88.075 0.449407 83.3408 4.0928 76.7996 15.5751C63.4473 12.1772 55.6439 10.6815 40.0001 15Z" fill="white"/>
<path d="M97.0002 23.075C98.0002 24.075 99.217 25.261 101 27.5M14.4999 37.5C11.0068 24.6441 12.7815 9.911 18.0001 7.5C25.2647 4.2939 32.409 10.6888 40.0001 15C55.6439 10.6815 63.4473 12.1772 76.7996 15.5751C83.3408 4.0928 88.075 0.449407 96.2997 2.57508C103.452 4.59155 103.278 9.16504 101 27.5M14.4999 37.5C10.8146 49.5272 12.889 64.0687 17.0526 68.5C21.2162 72.9313 32.8003 89.9627 66.5 85.5C100.2 81.0373 109.926 70.9114 110.5 53.5C110.343 44.3215 110.969 37.9976 101 27.5M14.4999 37.5C15.2137 31.6429 16.8194 42.1575 14.4999 37.5ZM103.5 49.5C106 47.5 115.822 44.5979 124.5 45M123.5 58C115.901 56.5473 109.73 57.1275 104 58.5M120 72.5C113.235 68.2377 108.068 65.8008 103.5 65M2 61.5C7.53474 58.8005 12.7646 58.1311 20.5001 58.5M10 72C14.3695 68.9367 19.1969 67.6807 24.5001 67M14.4999 85.5C18.7441 81.3178 24.7414 77.3841 29.5001 75" stroke="#5B253D" stroke-width="3" stroke-linecap="round"/>
<path d="M72.0002 63.5C72.0002 64.3217 71.5202 65.1724 70.5272 65.8598C69.5382 66.5445 68.1175 67 66.5002 67C64.883 67 63.4623 66.5445 62.4733 65.8598C61.4803 65.1724 61.0002 64.3217 61.0002 63.5C61.0002 62.6783 61.4803 61.8276 62.4733 61.1402C63.4623 60.4555 64.883 60 66.5002 60C68.1175 60 69.5382 60.4555 70.5272 61.1402C71.5202 61.8276 72.0002 62.6783 72.0002 63.5Z" fill="#FFD693" stroke="#5B253D" stroke-width="2"/>
<ellipse cx="38.5002" cy="58" rx="3.5" ry="5" fill="#722249"/>
<ellipse cx="89.5002" cy="54" rx="3.5" ry="5" fill="#722249"/>
<path d="M49.3301 4C45.3303 4.00003 30.3675 19 37.3675 26.5C44.3675 34 62.7924 37.5 62.2926 26.5C61.7927 15.5 53.3299 3.99997 49.3301 4Z" fill="#E15498"/>
<path d="M21.5992 44.5C11.5254 38.9913 4.62734 23.022 12.3301 21C20.0329 18.978 21.7094 18.3494 34.8301 28C32.8395 38.8235 30.314 46.1477 21.5992 44.5Z" fill="#E15498"/>
<path d="M49.3301 4C45.3303 4.00003 30.3675 19 37.3675 26.5C44.3675 34 62.7924 37.5 62.2926 26.5C61.7927 15.5 53.3299 3.99997 49.3301 4Z" stroke="#5B253D" stroke-width="2"/>
<path d="M21.5992 44.5C11.5254 38.9913 4.62734 23.022 12.3301 21C20.0329 18.978 21.7094 18.3494 34.8301 28C32.8395 38.8235 30.314 46.1477 21.5992 44.5Z" stroke="#5B253D" stroke-width="2"/>
<circle cx="24.0002" cy="32" r="4" fill="#E15498" stroke="#5B253D" stroke-width="2"/>
<circle cx="46.0002" cy="22" r="4" fill="#E15498" stroke="#5B253D" stroke-width="2"/>
<path d="M45.0992 27.5C45.0992 32.0618 40.7647 36 35.0992 36C29.4337 36 25.0992 32.0618 25.0992 27.5C25.0992 22.9382 29.4337 19 35.0992 19C40.7647 19 45.0992 22.9382 45.0992 27.5Z" fill="#E15498" stroke="#5B253D" stroke-width="2"/>
</svg>
