<svg width="1434" height="126" viewBox="0 0 1434 126" fill="none" xmlns="http://www.w3.org/2000/svg">
<path d="M13.3151 117.283C19.7544 118.864 27.5816 118.158 32.8151 114.283L61.3151 115.283C68.0445 119.738 72.1091 120.639 80.8151 114.283C89.1544 106.405 88.1013 101.406 79.3151 91.7832C90.0032 91.3616 92.2795 88.2284 93.3151 80.2832C93.0849 66.8331 89.0452 64.0745 79.3151 63.7832C84.6007 47.9569 82.299 43.2683 73.3151 38.7832C66.1427 36.2969 61.6378 36.9185 53.3151 45.7832C49.9101 34.5983 46.0888 32.0504 36.3151 33.2832C25.328 33.5162 21.9066 39.7046 22.8151 53.7832C12.2962 52.2711 6.82842 52.2842 2.8151 63.7832C0.592087 76.7608 2.85948 81.3118 10.3151 86.7832C3.83265 94.7966 -1.94009 104.634 13.3151 117.283Z" fill="#F98BAE" stroke="#E65495" stroke-width="3"/>
<path d="M33.3151 105.283L23.8151 97.7832L30.8151 83.7832L36.8151 87.2832V77.2832H53.3151L53.8151 86.7832L59.3151 82.2832L70.3151 89.7832L59.3151 103.283L59.8151 122.283H33.3151V105.283Z" fill="#E65495" stroke="#E65495" stroke-width="3"/>
<path d="M74.0001 102.5C67.8752 108.086 67.5259 112.914 67.5001 122H171.5L155 96.9999C147.16 90.7486 143.289 85.8768 133 85.9999C122.622 86.8006 119.337 88.7493 119 95.4999C113.533 89.3473 110.627 85.2322 103.5 85.9999C95.7224 88.4038 92.6248 91.4032 91.5001 102.5C82.6504 98.2431 79.1859 99.0185 74.0001 102.5Z" fill="#F98BAE" stroke="#E65495" stroke-width="3"/>
<path d="M786.5 121.5C784.359 113.939 784.092 109.802 793.5 103.5C799.355 101.226 802.792 102.178 809 105C809.468 94.9883 812.177 92.3619 818.5 89.4999C826.102 88.5264 828.577 90.9747 832 96.9999C835.691 88.8094 840.5 88.9999 847 88.9999C853.394 88.9999 856.011 93.9387 857.906 102.092C861.029 101.498 864.302 102.721 869 105C868.168 93.5736 871.624 91.4401 879.5 89.4999C887.303 88.9341 890.717 90.8538 895 98.4999C898.528 90.7162 901.956 88.8008 910.5 89.4999C920.682 91.7196 922.469 96.8115 923 108.5C928.591 105.538 932.522 106.872 940 111C946.34 116.966 946.591 119.566 939.5 122.5L844 121.876L786.5 121.5Z" fill="#F98BAE"/>
<path d="M858 102.5C856.097 94.1037 853.5 88.9999 847 88.9999C840.5 88.9999 835.691 88.8094 832 96.9999C828.577 90.9747 826.102 88.5264 818.5 89.4999C812.177 92.3619 809.468 94.9883 809 105C802.792 102.178 799.355 101.226 793.5 103.5C784.092 109.802 784.359 113.939 786.5 121.5L939.5 122.5C946.591 119.566 946.34 116.966 940 111C932.522 106.872 928.591 105.538 923 108.5C922.469 96.8115 920.682 91.7196 910.5 89.4999C901.956 88.8008 898.528 90.7162 895 98.4999C890.717 90.8538 887.303 88.9341 879.5 89.4999C871.624 91.4401 868.168 93.5736 869 105C861.635 101.427 857.77 100.45 852.5 105C845.149 110.17 843.148 114.116 844 121.876" stroke="#E65495" stroke-width="3"/>
<path d="M726.315 118.283C732.754 119.864 740.582 119.158 745.815 115.283L774.315 116.283C781.045 120.738 785.109 121.639 793.815 115.283C802.154 107.405 801.101 102.406 792.315 92.7832C803.003 92.3616 805.279 89.2284 806.315 81.2832C806.085 67.8331 802.045 65.0745 792.315 64.7832C797.601 48.9569 795.299 44.2683 786.315 39.7832C779.143 37.2969 774.638 37.9185 766.315 46.7832C762.91 35.5983 759.089 33.0504 749.315 34.2832C738.328 34.5162 734.907 40.7046 735.815 54.7832C725.296 53.2711 719.828 53.2842 715.815 64.7832C713.592 77.7608 715.859 82.3118 723.315 87.7832C716.833 95.7966 711.06 105.634 726.315 118.283Z" fill="#F98BAE" stroke="#E65495" stroke-width="3"/>
<path d="M746.315 106.283L736.815 98.7832L743.815 84.7832L749.815 88.2832V78.2832H766.315L766.815 87.7832L772.315 83.2832L783.315 90.7832L772.315 104.283L772.815 123.283H746.315V106.283Z" fill="#E65495" stroke="#E65495" stroke-width="3"/>
<path d="M946.315 119.283C952.754 120.864 960.582 120.158 965.815 116.283L994.315 117.283C1001.04 121.738 1005.11 122.639 1013.82 116.283C1022.15 108.405 1021.1 103.406 1012.32 93.7832C1023 93.3616 1025.28 90.2284 1026.32 82.2832C1026.08 68.8331 1022.05 66.0745 1012.32 65.7832C1017.6 49.9569 1015.3 45.2683 1006.32 40.7832C999.143 38.2969 994.638 38.9185 986.315 47.7832C982.91 36.5983 979.089 34.0504 969.315 35.2832C958.328 35.5162 954.907 41.7046 955.815 55.7832C945.296 54.2711 939.828 54.2842 935.815 65.7832C933.592 78.7608 935.859 83.3118 943.315 88.7832C936.833 96.7966 931.06 106.634 946.315 119.283Z" fill="#F98BAE" stroke="#E65495" stroke-width="3"/>
<path d="M966.315 107.283L956.815 99.7832L963.815 85.7832L969.815 89.2832V79.2832H986.315L986.815 88.7832L992.315 84.2832L1003.32 91.7832L992.315 105.283L992.815 124.283H966.315V107.283Z" fill="#E65495" stroke="#E65495" stroke-width="3"/>
<path d="M1253 72.5001C1251.31 82.3278 1248.09 83.3377 1242 84.5001L1183 93.0001L1180.5 45.0001C1180.7 39.2329 1181.39 35.8114 1191 27.0001C1196.4 24.2536 1199.4 23.3916 1204.5 27.0001C1210.23 14.1685 1215.68 14.5419 1225.5 15.5001C1240.29 20.453 1240.29 25.949 1238 36.5001C1245.39 35.2031 1247.05 38.1765 1250 43.5001C1253.07 50.5097 1253.8 54.4443 1247 61.5001C1252.27 61.9982 1252.95 65.2281 1253 72.5001Z" fill="#F38DB2" stroke="#E65495" stroke-width="3"/>
<path d="M1060.05 53C1059.84 57.8649 1060.12 60.2599 1063.05 62.5L1101.05 78.5L1126.55 64L1129.05 31C1125.98 19.0982 1123.88 13.3936 1117.55 10C1111.13 8.43774 1108.56 9.13144 1106.05 13.5C1105.88 6.53056 1103.71 3.83378 1093.05 3C1083.77 3.44682 1078.83 5.24541 1075.05 17.5C1064.6 16.7909 1063.2 20.3651 1061.55 27.5C1059.84 36.9515 1060.82 40.8777 1068.05 44C1062.46 44.7269 1060.45 46.4061 1060.05 53Z" fill="#F38DB2" stroke="#E65495" stroke-width="3"/>
<path d="M1120.5 45.5C1115.76 48.489 1113.86 50.5091 1114.5 55L1119 77L1192 78C1193.02 68.9624 1194.03 64.2799 1192.5 53C1190.37 45.2519 1187.77 42.9277 1180.5 42.5C1186.75 36.359 1186.81 32.8488 1182.5 26.5C1179.23 21.9856 1177.27 19.8778 1172 22C1169.06 8.61211 1166.54 2.13626 1152 2.49998C1138.87 3.43976 1132.82 7.75774 1135 24C1128.26 25.2866 1125.63 26.7381 1122 30C1117.43 36.5317 1116.73 39.9707 1120.5 45.5Z" fill="#F38DB2" stroke="#E65495" stroke-width="3"/>
<path d="M1088 46V59.5V71L1105.5 71.5L1105 49L1112 45L1107.5 37L1101.5 42L1101 28.5H1090.5V39.5L1085 35L1081 41L1088 46Z" fill="#E65495" stroke="#E65495" stroke-width="3"/>
<path d="M1208 63.5V77V88.5L1225.5 89L1225 66.5L1232 62.5L1227.5 54.5L1221.5 59.5L1221 46H1210.5V57L1205 52.5L1201 58.5L1208 63.5Z" fill="#E65495" stroke="#E65495" stroke-width="3"/>
<path d="M1144 50.5V64V75.5L1161.5 76L1161 53.5L1168 49.5L1163.5 41.5L1157.5 46.5L1157 33H1146.5V44L1141 39.5L1137 45.5L1144 50.5Z" fill="#E65495" stroke="#E65495" stroke-width="3"/>
<path d="M1067.5 61C1041.6 76.4664 1038.4 90.9981 1042.5 122L1330 123L1325 82.5C1317.59 74.7307 1313.1 71.361 1303 71.5C1291.09 72.3132 1286.54 75.3781 1281 84C1277.04 80.3192 1275.06 78.0158 1267 78.5C1261.6 80.0407 1260.14 82.9836 1258.5 89.5C1253.58 79.8671 1250.02 76.2127 1241 75.5C1226.59 74.4166 1223.2 76.5986 1218 81L1217.72 80.7368C1205.71 69.5877 1198.19 62.6054 1189 62.9999C1177.21 61.9128 1174.29 64.0757 1163.5 71.5C1151.35 62.803 1144.59 58.2949 1133.5 57.5C1117.87 56.8421 1111.18 59.0854 1102 69.5C1089.4 60.6221 1082.64 53.6867 1067.5 61Z" fill="#F38DB2" stroke="#E65495" stroke-width="3"/>
<path d="M1395.09 72.3427C1397.39 79.6981 1398.49 94.011 1395.09 97.5L1335.59 120.5L1308.09 106V88.8428C1307.66 82.4776 1308.64 78.5801 1315.09 75.8427C1310.72 69.6186 1309.18 65.9952 1314.59 58.3427C1320.26 52.4962 1323 52.6746 1327.59 55.3427C1330.15 43.9557 1332.16 38.2162 1343.59 36.8427C1353.77 34.4079 1357.58 37.1028 1362.09 46.8427C1371.16 40.285 1375.89 41.5544 1381.59 45.8427C1388.28 52.3214 1389.11 56.8378 1384.09 66.8427C1390.75 66.5456 1392.73 68.1889 1395.09 72.3427Z" fill="#F38DB2" stroke="#E65495" stroke-width="3"/>
<path d="M1362 92.5V106.5H1339V93L1332.5 87L1339 79.5L1344 83.5V69H1357.5V80.5L1363 75L1371.5 83.5L1362 92.5Z" fill="#EA529D" stroke="#EA529D" stroke-width="3"/>
<path d="M1368.19 97.1029C1359.49 101.982 1358.46 107.327 1359.19 118.603V123.103L1431.69 124.103C1431.7 116.495 1432.5 112.361 1430.69 107.103C1427.66 101.491 1425.71 98.5169 1416.19 101.603C1417.8 89.6156 1415.02 86.2357 1404.69 85.1029C1391.19 84.2969 1386.54 88.1726 1381.69 98.6029C1377.39 94.9533 1374.51 94.365 1368.19 97.1029Z" fill="#F38DB2" stroke="#E65495" stroke-width="3"/>
<path d="M1281 106.079C1277.19 110.431 1276.16 113.418 1276 119.579V123.579L1362 123.079C1360.64 112.96 1358.59 109.316 1353.5 105.079C1346.45 100.112 1342.99 99.7872 1337.5 102.579C1336.5 94.2701 1334.47 91.2328 1327 90.0785C1320.1 89.6213 1317.41 92.5609 1315 97.0785C1313.01 92.0383 1310.27 89.5109 1302.5 90.0785C1294.18 91.2802 1290.86 94.8118 1289.5 104.079C1285.58 103.407 1283.62 103.606 1281 106.079Z" fill="#F38DB2" stroke="#E65495" stroke-width="3"/>
<path d="M1036.15 101.046C1029.83 106.866 1028.61 110.234 1033.15 116.546C1024.23 114.666 1021.94 115.682 1025.8 123.546H1101.15C1107.66 123.339 1105.84 120.115 1101.15 113.546C1094.8 106.109 1090.88 103.728 1082.15 107.546C1082.31 94.0674 1079.74 89.46 1068.15 89.0458C1060.7 88.6769 1057.35 90.3903 1055.65 99.5458C1047.72 96.2119 1043.1 96.4456 1036.15 101.046Z" fill="#F38DB2" stroke="#EA529D" stroke-width="3"/>
<path d="M528 72.0145C526.315 81.8422 523.085 82.8521 517 84.0145L458 92.5145L455.5 44.5145C455.7 38.7473 456.392 35.3258 466 26.5145C471.401 23.768 474.397 22.906 479.5 26.5145C485.23 13.6829 490.685 14.0563 500.5 15.0145C515.293 19.9674 515.29 25.4634 513 36.0145C520.389 34.7175 522.05 37.6909 525 43.0145C528.068 50.0241 528.801 53.9587 522 61.0145C527.275 61.5126 527.954 64.7425 528 72.0145Z" fill="#F38DB2" stroke="#E65495" stroke-width="3"/>
<path d="M335.055 52.5145C334.844 57.3794 335.124 59.7744 338.055 62.0145L376.055 78.0145L401.555 63.5145L404.055 30.5145C400.976 18.6127 398.881 12.9082 392.555 9.51453C386.126 7.95226 383.561 8.64597 381.055 13.0145C380.877 6.04508 378.708 3.3483 368.055 2.51453C358.772 2.96135 353.826 4.75994 350.055 17.0145C339.6 16.3054 338.199 19.8796 336.555 27.0145C334.838 36.466 335.818 40.3922 343.055 43.5145C337.457 44.2414 335.447 45.9207 335.055 52.5145Z" fill="#F38DB2" stroke="#E65495" stroke-width="3"/>
<path d="M395.5 45.0145C390.761 48.0035 388.862 50.0237 389.5 54.5145L394 76.5145L467 77.5145C468.021 68.4769 469.031 63.7944 467.5 52.5145C465.372 44.7665 462.774 42.4423 455.5 42.0145C461.745 35.8736 461.812 32.3633 457.5 26.0145C454.228 21.5001 452.267 19.3923 447 21.5145C444.061 8.12664 441.544 1.65078 427 2.01451C413.873 2.95429 407.823 7.27227 410 23.5145C403.256 24.8011 400.627 26.2526 397 29.5145C392.427 36.0462 391.728 39.4852 395.5 45.0145Z" fill="#F38DB2" stroke="#E65495" stroke-width="3"/>
<path d="M363 45.5145V59.0145V70.5145L380.5 71.0145L380 48.5145L387 44.5145L382.5 36.5145L376.5 41.5145L376 28.0145H365.5V39.0145L360 34.5145L356 40.5145L363 45.5145Z" fill="#E65495" stroke="#E65495" stroke-width="3"/>
<path d="M483 63.0145V76.5145V88.0145L500.5 88.5145L500 66.0145L507 62.0145L502.5 54.0145L496.5 59.0145L496 45.5145H485.5V56.5145L480 52.0145L476 58.0145L483 63.0145Z" fill="#E65495" stroke="#E65495" stroke-width="3"/>
<path d="M419 50.0145V63.5145V75.0145L436.5 75.5145L436 53.0145L443 49.0145L438.5 41.0145L432.5 46.0145L432 32.5145H421.5V43.5145L416 39.0145L412 45.0145L419 50.0145Z" fill="#E65495" stroke="#E65495" stroke-width="3"/>
<path d="M342.5 60.5145C316.601 75.981 313.398 90.5126 317.5 121.514L605 122.514L600 82.0145C592.593 74.2452 588.104 70.8756 578 71.0145C566.089 71.8277 561.54 74.8926 556 83.5145C552.044 79.8337 550.063 77.5303 542 78.0145C536.603 79.5552 535.145 82.4981 533.5 89.0145C528.578 79.3816 525.017 75.7272 516 75.0145C501.59 73.9311 498.196 76.1131 493 80.5145L492.716 80.2513C480.707 69.1022 473.186 62.12 464 62.5145C452.207 61.4273 449.293 63.5902 438.5 71.0145C426.349 62.3175 419.586 57.8094 408.5 57.0145C392.873 56.3566 386.178 58.5999 377 69.0145C364.398 60.1366 357.639 53.2013 342.5 60.5145Z" fill="#F38DB2" stroke="#E65495" stroke-width="3"/>
<path d="M670.087 71.8572C672.391 79.2126 673.491 93.5255 670.087 97.0145L610.587 120.015L583.087 105.515V88.3574C582.657 81.9921 583.639 78.0946 590.087 75.3572C585.719 69.1331 584.184 65.5097 589.587 57.8572C595.257 52.0107 597.998 52.1891 602.587 54.8572C605.148 43.4702 607.155 37.7307 618.587 36.3572C628.765 33.9225 632.581 36.6173 637.087 46.3572C646.156 39.7995 650.887 41.0689 656.587 45.3572C663.285 51.8359 664.107 56.3523 659.087 66.3572C665.748 66.0601 667.731 67.7035 670.087 71.8572Z" fill="#F38DB2" stroke="#E65495" stroke-width="3"/>
<path d="M637 92.0145V106.015H614V92.5145L607.5 86.5145L614 79.0145L619 83.0145V68.5145H632.5V80.0145L638 74.5145L646.5 83.0145L637 92.0145Z" fill="#EA529D" stroke="#EA529D" stroke-width="3"/>
<path d="M643.193 96.6174C634.489 101.497 633.458 106.841 634.193 118.117V122.617L706.693 123.617C706.699 116.009 707.503 111.876 705.693 106.617C702.66 101.005 700.713 98.0314 691.193 101.117C692.796 89.1302 690.024 85.7503 679.693 84.6174C666.192 83.8114 661.54 87.6871 656.693 98.1174C652.387 94.4678 649.512 93.8796 643.193 96.6174Z" fill="#F38DB2" stroke="#E65495" stroke-width="3"/>
<path d="M556 105.593C552.192 109.946 551.162 112.933 551 119.093V123.093L637 122.593C635.638 112.475 633.589 108.831 628.5 104.593C621.446 99.6263 617.988 99.3017 612.5 102.093C611.496 93.7846 609.471 90.7473 602 89.5931C595.098 89.1358 592.41 92.0754 590 96.5931C588.009 91.5528 585.271 89.0254 577.5 89.5931C569.181 90.7947 565.864 94.3263 564.5 103.593C560.581 102.922 558.621 103.12 556 105.593Z" fill="#F38DB2" stroke="#E65495" stroke-width="3"/>
<path d="M311.154 100.56C304.827 106.38 303.608 109.749 308.154 116.06C299.229 114.18 296.943 115.196 300.804 123.06H376.154C382.663 122.853 380.842 119.63 376.154 113.06C369.797 105.624 365.876 103.242 357.154 107.06C357.307 93.5819 354.741 88.9745 343.154 88.5604C335.699 88.1914 332.352 89.9048 330.654 99.0604C322.722 95.7264 318.104 95.9601 311.154 100.56Z" fill="#F38DB2" stroke="#EA529D" stroke-width="3"/>
</svg>
