<svg width="221" height="96" viewBox="0 0 221 96" fill="none" xmlns="http://www.w3.org/2000/svg">
<ellipse cx="110.5" cy="68.0303" rx="110.5" ry="27.5" fill="#F590B2"/>
<path d="M85.5823 69.1739L76.5823 62.1739L89.5823 60.6739C82.4409 46.2021 75.8011 41.624 57.0823 42.6739C36.5829 44.2841 34.9162 49.818 33.0823 59.6739C32.6658 63.8854 33.8046 65.8984 37.0823 69.1739C42.9436 74.5262 52.7994 76.7032 67.5823 76.6739C80.4991 75.4368 81.7494 72.9862 85.5823 69.1739Z" fill="#EB539C" stroke="#8B2152" stroke-width="2"/>
<path d="M140.13 76.0303L140.63 66.5303L128.63 73.0303C123.63 67.5303 123.053 63.4571 125.13 58.5303C130.13 50.5303 137.368 44.9697 155.13 44.5303C172.63 45.5303 177.352 52.7588 179.13 62.0303C178.964 71.2799 172.63 75.0303 161.13 76.0303H140.13Z" fill="#E3539B" stroke="#8B2152" stroke-width="2"/>
<path d="M147.55 10.0304L154.05 11.0304C156.394 7.89544 157.909 6.94973 161.05 7.03041C166.683 7.34602 167.304 9.23231 168.05 13.0304C168.24 16.2274 167.734 17.6251 165.05 18.5304C166.705 19.6846 167.403 20.5354 167.55 23.0304C167.573 38.0003 159.62 37.5802 154.05 38.0304C148.115 38.2461 145.598 38.7056 141.05 38.0304C130.278 34.3981 129.774 30.7645 130.05 22.5305C130.462 18.165 130.932 15.238 133.55 13.5304C133.253 7.25435 134.721 3.80879 140.05 3.53041C143.176 3.57559 144.8 5.22961 147.55 10.0304Z" fill="#97CE66" stroke="#6C3038" stroke-width="3"/>
<path d="M171.138 46.4694C170.5 43.0284 165.885 40.4673 159.138 41.9694L163.138 57.4694C168.958 55.0107 170.774 52.6095 171.138 46.4694Z" fill="#97CE66"/>
<path d="M133.638 60.9694C133.304 60.8028 132.738 60.3694 133.138 59.9694L136.861 58.6155L136.638 58.9694L135.138 60.4694L133.638 60.9694Z" fill="#97CE66"/>
<path d="M138.638 57.9694L136.861 58.6155M136.861 58.6155L133.138 59.9694C132.738 60.3694 133.304 60.8028 133.638 60.9694L135.138 60.4694L136.638 58.9694L136.861 58.6155ZM159.138 41.9694C165.885 40.4673 170.5 43.0284 171.138 46.4694C170.774 52.6095 168.958 55.0107 163.138 57.4694L159.138 41.9694Z" stroke="#6C3038" stroke-width="2"/>
<path d="M142 60.0303L141 60.8081M141 60.8081C141 60.8081 138 63.0303 137.5 63.5303C137 64.0303 137.167 61.8636 137.5 61.5303L139 61.0303L141 60.8081Z" stroke="#6C3038" stroke-width="2"/>
<path d="M139.5 43.53C133.852 39.7668 125.785 45.3779 136.5 54.5303L141.5 52.53C141.5 52.53 145.148 47.2933 139.5 43.53Z" fill="#97CE66"/>
<path d="M161 60.0303C163.96 64.1039 166.568 67.4989 161 63.5303V60.0303Z" fill="#97CE66"/>
<path d="M169.5 63.0303C170.156 62.7599 170.302 62.5498 170 62.0303L166.533 58.5635C166.795 60.1279 167.045 61.0001 168 62.5303C168.736 63.1386 169.134 63.4389 169.5 63.0303Z" fill="#97CE66"/>
<path d="M165 56.5303C165.5 57.0303 166.533 58.5635 166.533 58.5635M166.533 58.5635L170 62.0303C170.302 62.5498 170.156 62.7599 169.5 63.0303C169.134 63.4388 168.736 63.1386 168 62.5303C167.045 61.0001 166.795 60.1279 166.533 58.5635ZM136.5 54.5303C125.785 45.3779 133.852 39.7668 139.5 43.53C145.148 47.2933 141.5 52.53 141.5 52.53L136.5 54.5303ZM161 60.0303C163.96 64.1039 166.568 67.4989 161 63.5303V60.0303Z" stroke="#6C3038" stroke-width="2"/>
<path d="M157 38.0303C157 38.0303 149.5 38.2303 148.5 38.6303C147.5 39.0303 140.35 51.1688 148.899 58.0307C148.699 59.8425 154.324 60.7383 161.463 60.1307C169.197 52.3154 157 38.0303 157 38.0303Z" fill="#97CE66" stroke="#6C3038" stroke-width="2"/>
<path d="M144 60.0302C135.399 60.0606 132.576 48.543 143 39.5302C145.039 38.6899 146.307 38.484 149 39.0302C150.953 43.326 151.547 45.9352 153.5 50.231C151.692 53.2462 153 59.3294 152 59.5302C151 59.731 152.601 59.9998 144 60.0302Z" fill="white" stroke="#6C3038" stroke-width="2"/>
<circle cx="140.5" cy="16.0303" r="1.5" fill="black"/>
<circle cx="157.5" cy="19.0303" r="1.5" fill="black"/>
<path d="M150.5 30.0303C150.5 31.2371 149.943 32.3598 149.117 33.1949C148.276 34.0459 147.268 34.4878 146.5 34.4878C145.758 34.4878 144.89 34.0699 144.179 33.2452C143.479 32.4329 143 31.2975 143 30.0303C143 28.7611 143.48 27.601 144.186 26.7649C144.903 25.9148 145.77 25.4878 146.5 25.4878C147.256 25.4878 148.263 25.9404 149.11 26.8155C149.941 27.6738 150.5 28.8207 150.5 30.0303Z" fill="#FF8DC4" stroke="#6C3038" stroke-width="2"/>
<path d="M78.492 45.9301C77.7633 42.5073 73.0808 40.0703 66.3762 41.7519L68 58.2932C73.7526 55.6801 78.2927 52.0777 78.492 45.9301Z" fill="#97CE66"/>
<path d="M41.3923 61.4256C41.0546 61.2679 40.4766 60.8498 40.8658 60.4393L44.5517 58.9865L44.3379 59.3462L42.8784 60.8857L41.3923 61.4256Z" fill="#97CE66"/>
<path d="M46.3105 58.2932L44.5517 58.9865M44.5517 58.9865L40.8658 60.4393C40.4766 60.8498 41.0546 61.2679 41.3923 61.4256L42.8784 60.8857L44.3379 59.3462L44.5517 58.9865ZM66.3762 41.7519C73.0808 40.0703 77.7633 42.5073 78.492 45.9301C78.2927 52.0777 73.7526 55.6801 68 58.2932L66.3762 41.7519Z" stroke="#6C3038" stroke-width="2"/>
<path d="M49.7266 60.2637L48.7477 61.0679M48.7477 61.0679C48.7477 61.0679 45.8081 63.3694 45.3216 63.8825C44.8351 64.3957 44.9439 62.2254 45.2682 61.8833L46.7544 61.3434L48.7477 61.0679Z" stroke="#6C3038" stroke-width="2"/>
<path d="M46.2877 43.5331C40.541 39.9219 32.6274 45.7463 43.5823 54.6095L48.5271 52.4765C48.5271 52.4765 52.0343 47.1443 46.2877 43.5331Z" fill="#97CE66"/>
<path d="M68.2204 59.4538C71.2884 63.447 73.9852 66.7712 68.3138 62.9526L68.2204 59.4538Z" fill="#97CE66"/>
<path d="M76.7974 62.2259C77.4459 61.9381 77.5867 61.7242 77.2705 61.2129L73.7124 57.8398C74.016 59.3967 74.289 60.2619 75.2846 61.7661C76.0365 62.3545 76.4421 62.6441 76.7974 62.2259Z" fill="#97CE66"/>
<path d="M72.1255 55.8483C72.6387 56.3348 73.7124 57.8398 73.7124 57.8398M73.7124 57.8398L77.2705 61.2129C77.5867 61.7242 77.4459 61.9381 76.7974 62.2259C76.4421 62.6441 76.0365 62.3545 75.2846 61.7661C74.289 60.2619 74.016 59.3967 73.7124 57.8398ZM43.5823 54.6095C32.6274 45.7463 40.541 39.9219 46.2877 43.5331C52.0343 47.1443 48.5271 52.4765 48.5271 52.4765L43.5823 54.6095ZM68.2204 59.4538C71.2884 63.447 73.9852 66.7712 68.3138 62.9526L68.2204 59.4538Z" stroke="#6C3038" stroke-width="2"/>
<path d="M44.3782 49.3417C46.3426 40.9638 49.7878 37.987 58.8782 34.8417C67.8152 35.9509 70.0307 38.6677 70.8782 45.8418C70.7849 51.7754 70.4375 54.7729 66.8782 56.8418C61.815 59.9989 58.8189 60.5675 53.3782 60.8418C44.7806 59.1179 44.5214 55.6683 44.3782 49.3417Z" fill="#97CE66" stroke="#6C3038" stroke-width="2"/>
<path d="M58.0002 60.5293C49.4032 60.7892 47.32 44.8171 57.5002 35.5293C59.5157 34.6349 60.5002 34.5293 64.0002 36.0294C75.7975 41.9254 72.1721 56.459 64.5002 59.0293C63.1719 59.4743 62.0002 60.0293 62.0002 60.0293C60.9495 60.0854 59.9585 60.4701 58.0002 60.5293Z" fill="white" stroke="#6C3038" stroke-width="2"/>
<path d="M63.883 11.8198L55.0506 14.3176C52.3161 9.37308 49.8751 8.56394 44.3406 9.67585C41.2413 12.7302 40.5358 14.698 43.0843 19.1454L42.3806 22.0617C40.3562 41.65 51.3304 41.7092 62.9129 41.4181C84.0457 38.288 78.688 25.8368 74.2411 17.9197C77.5042 12.3128 76.5817 10.1179 72.2124 7.14318C66.5356 5.79185 64.5951 6.66432 63.883 11.8198Z" fill="#97CE66" stroke="#6C3038" stroke-width="3"/>
<path d="M63.4636 27.6634C60.8132 27.2977 59.4998 27.6931 57.4134 29.2896C58.0507 33.2145 60.3747 36.2565 62.5591 35.6748C64.7436 35.0932 65.9877 32.2914 63.4636 27.6634Z" fill="#E65495" stroke="#6C3038" stroke-width="2"/>
<circle cx="51.5395" cy="22.0698" r="1.5" transform="rotate(-1.52909 51.5395 22.0698)" fill="black"/>
<circle cx="66.5395" cy="20.0698" r="1.5" transform="rotate(-1.52909 66.5395 20.0698)" fill="black"/>
</svg>
