<svg width="174" height="207" viewBox="0 0 174 207" fill="none" xmlns="http://www.w3.org/2000/svg">
<path d="M102.769 143.968L90.5001 121.081L102.769 117.006C106.532 116.902 108.692 118.134 113.447 119.616C117.436 123.355 120.899 125.568 118.932 134.993C115.091 143.046 112.303 144.226 102.769 143.968Z" fill="white" stroke="#5B253D" stroke-width="2"/>
<path d="M102.5 143.945V116.122C96.4068 115.628 93.5138 116.655 88.5001 118.849C93.0268 129.788 102.5 145.036 102.5 143.945Z" fill="#FD90C1" stroke="#5B253D" stroke-width="2"/>
<ellipse cx="75.5" cy="191" rx="54.5" ry="16" fill="#F490B2"/>
<path d="M124.5 9.6459C89.2177 3.83705 68.0093 10.6413 45.0002 33.6459V42.1459L111 76.6459C125.637 73.9458 130.499 75.8165 143 81.1459C151.26 73.0668 156.706 71.3819 167.5 72.1459C166.752 70.3389 174.403 74.4926 171.5 65.6459C168.598 56.7991 168.533 26.5783 124.5 9.6459Z" fill="#DB7788" stroke="#5B253D" stroke-width="2"/>
<path d="M126 1.12857C121.443 0.470105 117.793 2.27209 118 8.12858L129.5 11.1286C130.76 5.35161 131.5 3.62857 126 1.12857Z" fill="#BCD89A"/>
<path d="M105.5 68.6286L115 34.1286L122 37.1286L110.5 80.6286L105.5 68.6286Z" fill="#BCD89A"/>
<path d="M126 1.12857C121.443 0.470105 117.793 2.27209 118 8.12858L129.5 11.1286C130.76 5.35161 131.5 3.62857 126 1.12857Z" stroke="#5B253D" stroke-width="2"/>
<path d="M105.5 68.6286L115 34.1286L122 37.1286L110.5 80.6286L105.5 68.6286Z" stroke="#5B253D" stroke-width="2"/>
<path d="M79.0002 30.5952C65.9474 27.725 55.4605 27.1965 45.0002 33.6811C68.2263 9.58406 89.5711 3.31481 124.5 9.18121M79.0002 30.5952C100.68 26.9449 109.556 28.0401 118.5 36.5952M79.0002 30.5952C91.7265 14.2956 101.476 8.62417 124.5 9.18121M118.5 36.5952C133.208 36.1748 139.402 38.8002 147.5 47.5952M118.5 36.5952L124.5 9.18121M147.5 47.5952C163.759 51.1263 166.644 57.7224 172 69.1813C169.683 44.4992 162.295 25.9332 124.5 9.18121M147.5 47.5952C139.796 23.9534 133.453 14.051 124.5 9.18121" stroke="#5B253D" stroke-width="2"/>
<path d="M142.5 80.6285C141.629 62.4754 137.348 50.9666 129 36.6285M96.5002 28.6285C85.8005 34.0908 80.7132 40.987 76.0002 50.6285" stroke="#5B253D" stroke-width="2"/>
<path d="M145.5 81C145.5 82.0068 145.194 82.8991 144.722 83.5284C144.25 84.1576 143.636 84.5 143 84.5C142.364 84.5 141.751 84.1576 141.279 83.5284C140.807 82.8991 140.5 82.0068 140.5 81C140.5 79.9932 140.807 79.1009 141.279 78.4716C141.751 77.8424 142.364 77.5 143 77.5C143.636 77.5 144.25 77.8424 144.722 78.4716C145.194 79.1009 145.5 79.9932 145.5 81Z" fill="#BCD89A" stroke="#5B253D"/>
<path d="M149.5 50C149.5 51.0068 149.194 51.8991 148.722 52.5284C148.25 53.1576 147.636 53.5 147 53.5C146.364 53.5 145.751 53.1576 145.279 52.5284C144.807 51.8991 144.5 51.0068 144.5 50C144.5 48.9932 144.807 48.1009 145.279 47.4716C145.751 46.8424 146.364 46.5 147 46.5C147.636 46.5 148.25 46.8424 148.722 47.4716C149.194 48.1009 149.5 48.9932 149.5 50Z" fill="#BCD89A" stroke="#5B253D"/>
<path d="M46.4632 36.4964C46.1538 37.4545 45.5878 38.2094 44.9453 38.6632C44.303 39.117 43.6138 39.2543 43.0088 39.059C42.4037 38.8636 41.9249 38.3492 41.6692 37.6055C41.4134 36.8616 41.3957 35.9183 41.705 34.9601C42.0144 34.002 42.5804 33.2471 43.2229 32.7933C43.8652 32.3395 44.5544 32.2022 45.1595 32.3975C45.7645 32.5929 46.2433 33.1073 46.499 33.851C46.7548 34.5949 46.7725 35.5382 46.4632 36.4964Z" fill="#BCD89A" stroke="#5B253D"/>
<path d="M80.3617 34.3111C80.0957 35.2822 79.5641 36.0617 78.9426 36.5439C78.3213 37.026 77.6389 37.1941 77.0257 37.0261C76.4126 36.8582 75.9112 36.3657 75.6223 35.6343C75.3334 34.9026 75.2734 33.961 75.5394 32.99C75.8055 32.0189 76.337 31.2394 76.9585 30.7571C77.5799 30.275 78.2622 30.1069 78.8754 30.2749C79.4886 30.4429 79.99 30.9353 80.2788 31.6668C80.5677 32.3985 80.6278 33.3401 80.3617 34.3111Z" fill="#BCD89A" stroke="#5B253D"/>
<path d="M120.5 38C120.5 39.0068 120.194 39.8991 119.722 40.5284C119.25 41.1576 118.636 41.5 118 41.5C117.364 41.5 116.751 41.1576 116.279 40.5284C115.807 39.8991 115.5 39.0068 115.5 38C115.5 36.9932 115.807 36.1009 116.279 35.4716C116.751 34.8424 117.364 34.5 118 34.5C118.636 34.5 119.25 34.8424 119.722 35.4716C120.194 36.1009 120.5 36.9932 120.5 38Z" fill="#BCD89A" stroke="#5B253D"/>
<path d="M173.5 72C173.5 73.0068 173.194 73.8991 172.722 74.5284C172.25 75.1576 171.636 75.5 171 75.5C170.364 75.5 169.751 75.1576 169.279 74.5284C168.807 73.8991 168.5 73.0068 168.5 72C168.5 70.9932 168.807 70.1009 169.279 69.4716C169.751 68.8424 170.364 68.5 171 68.5C171.636 68.5 172.25 68.8424 172.722 69.4716C173.194 70.1009 173.5 70.9932 173.5 72Z" fill="#BCD89A" stroke="#5B253D"/>
<path d="M113.502 117.001C107.306 115.876 110.921 126.565 106.274 124.877C101.627 123.189 104.448 118.237 106.274 108C103.763 109.877 102.696 112.338 97.7592 113.063C96.223 118.989 95.6844 122.627 98.5289 128.815C101.374 135.004 109.635 135.004 113.249 132.191C116.863 129.378 118.149 117.001 113.502 117.001Z" fill="#E14F96" stroke="#5B253D" stroke-width="2"/>
<path d="M68.3392 192.334C66.1283 197.569 65.2947 204.341 55.0995 202.769C51.663 202.618 42.3086 195.677 32.1846 189.353V186.372H29.1293L22.0002 178.422L28.6201 166C41.8418 171.542 50.864 172.725 72.413 173.95C71.5002 173.95 88.9532 172.556 95.8371 169.975V176.931C107.405 177.972 114.321 194.061 94.3094 195.812C74.2979 197.564 67.9077 196.717 68.3392 192.334Z" fill="#DB6E85"/>
<path d="M72.413 173.95L68.3392 182.397C68.3392 182.397 68.3392 190.844 68.3392 192.334M72.413 173.95C50.864 172.725 41.8418 171.542 28.6201 166L22.0002 178.422L29.1293 186.372H32.1846V189.353C42.3086 195.677 51.663 202.618 55.0995 202.769C65.2947 204.341 66.1283 197.569 68.3392 192.334M72.413 173.95C71.5002 173.95 88.9532 172.556 95.8371 169.975V176.931C107.405 177.972 114.321 194.061 94.3094 195.812C74.2979 197.564 67.9077 196.717 68.3392 192.334" stroke="#5B253D" stroke-width="3"/>
<path d="M108.352 163.846C109.922 164.066 98.7678 136.284 87.5553 119C65.3331 123.161 55.9066 122.892 41.8539 120.045C31.7381 136.157 26.4873 145.113 22.5001 161.736C57.0091 183.259 107.657 168.088 108.352 163.846Z" fill="#FD90C1" stroke="#5B253D" stroke-width="2"/>
<path d="M79.0002 154.5C79.0002 156.337 77.3111 158 75.0002 158C72.6894 158 71.0002 156.337 71.0002 154.5C71.0002 152.664 72.6894 151 75.0002 151C77.3111 151 79.0002 152.664 79.0002 154.5Z" fill="#FD90C1" stroke="#5B253D" stroke-width="2"/>
<path d="M75.0002 141.5C75.0002 143.337 73.3111 145 71.0002 145C68.6894 145 67.0002 143.337 67.0002 141.5C67.0002 139.664 68.6894 138 71.0002 138C73.3111 138 75.0002 139.664 75.0002 141.5Z" fill="#FD90C1" stroke="#5B253D" stroke-width="2"/>
<path d="M66.1313 133.195C72.9343 132.181 71.6186 128.435 71.0002 123L85.8892 119C86.987 125.257 87.5643 129.83 78.8637 130.967C73.0124 131.212 72.4798 129.039 71.0176 123.071L71.001 123.003C70.9566 123.229 50.4324 123.815 49.0002 122.5C52.0869 129.759 54.6873 133.716 66.1313 133.195Z" fill="#FF93B5"/>
<path d="M71.0002 123C71.6186 128.435 72.9343 132.181 66.1313 133.195C54.6873 133.716 52.0869 129.759 49.0002 122.5C50.4393 123.822 71.1556 123.223 71.0002 123ZM71.0002 123C72.4757 129.022 72.9892 131.213 78.8637 130.967C87.5643 129.83 86.987 125.257 85.8892 119L71.0002 123Z" stroke="#5B253D" stroke-width="2"/>
<path d="M39.3238 148.963C49.6252 140.485 54.3529 135.296 48.3664 126.673C41.2957 120.323 36.7222 122.997 27.7695 128.699C18.5168 135.244 14.8727 140.631 18.2243 149.47C20.1708 153.497 23.0287 154.916 29.2766 154.029C30.1021 157.294 32.2742 157.391 35.3048 156.563C39.3174 155.22 39.8194 153.235 39.3238 148.963Z" fill="white" stroke="#5B253D" stroke-width="2"/>
<path d="M40.9661 148C51.9894 139.414 54.7876 134.287 49.2066 126.657C42.5677 120.162 35.3433 122.705 25.0002 131.23L40.9661 148Z" fill="#FD93B7" stroke="#5B253D" stroke-width="2"/>
<path d="M40.0001 52C32.409 47.6888 25.2647 41.2939 18.0001 44.5C12.7815 46.911 11.0068 61.6441 14.4999 74.5C12.3585 81.4886 12.1618 89.3262 13.1897 95.5359C13.9307 100.013 15.3083 103.644 17.0526 105.5C17.0664 105.515 17.0802 105.529 17.0941 105.544C18.6702 107.233 21.2916 110.67 25.7279 114.069C33.1105 119.725 45.5191 125.278 66.5 122.5C91.0269 119.252 102.855 113.004 107.698 103.131C108.995 100.487 109.791 97.5824 110.196 94.4059C110.357 93.1469 110.456 91.8452 110.5 90.5C110.459 88.0756 110.472 85.8504 110.33 83.6948C109.935 77.6895 108.336 72.2248 101 64.5C103.278 46.165 103.452 41.5915 96.2997 39.5751C88.075 37.4494 83.3408 41.0928 76.7996 52.5751C63.4473 49.1772 55.6439 47.6815 40.0001 52Z" fill="white"/>
<path d="M97.0002 60.075C98.0002 61.075 99.217 62.261 101 64.5M14.4999 74.5C11.0068 61.6441 12.7815 46.911 18.0001 44.5C25.2647 41.2939 32.409 47.6888 40.0001 52C55.6439 47.6815 63.4473 49.1772 76.7996 52.5751C83.3408 41.0928 88.075 37.4494 96.2997 39.5751C103.452 41.5915 103.278 46.165 101 64.5M14.4999 74.5C10.8146 86.5272 12.889 101.069 17.0526 105.5C21.2162 109.931 32.8003 126.963 66.5 122.5C100.2 118.037 109.926 107.911 110.5 90.5C110.343 81.3215 110.969 74.9976 101 64.5M14.4999 74.5C15.2137 68.6429 16.8194 79.1575 14.4999 74.5ZM103.5 86.5C106 84.5 115.822 81.5979 124.5 82M123.5 95C115.901 93.5473 109.73 94.1275 104 95.5M120 109.5C113.235 105.238 108.068 102.801 103.5 102M2 98.5C7.53474 95.8005 12.7646 95.1311 20.5001 95.5M10 109C14.3695 105.937 19.1969 104.681 24.5001 104M14.4999 122.5C18.7441 118.318 24.7414 114.384 29.5001 112" stroke="#5B253D" stroke-width="3" stroke-linecap="round"/>
<path d="M72.0002 100.5C72.0002 101.322 71.5202 102.172 70.5272 102.86C69.5382 103.545 68.1175 104 66.5002 104C64.883 104 63.4623 103.545 62.4733 102.86C61.4803 102.172 61.0002 101.322 61.0002 100.5C61.0002 99.6783 61.4803 98.8276 62.4733 98.1402C63.4623 97.4555 64.883 97 66.5002 97C68.1175 97 69.5382 97.4555 70.5272 98.1402C71.5202 98.8276 72.0002 99.6783 72.0002 100.5Z" fill="#FFD693" stroke="#5B253D" stroke-width="2"/>
<ellipse cx="38.5002" cy="95" rx="3.5" ry="5" fill="#722249"/>
<ellipse cx="89.5002" cy="91" rx="3.5" ry="5" fill="#722249"/>
<path d="M49.3301 41C45.3303 41 30.3676 56 37.3675 63.5C44.3675 71 62.7925 74.5 62.2926 63.5C61.7928 52.5 53.33 41 49.3301 41Z" fill="#E15498"/>
<path d="M21.5992 81.5C11.5255 75.9913 4.55683 59.8457 12.3301 58C20.1034 56.1543 21.7761 55.5235 34.8301 65C32.8395 75.8235 30.314 83.1477 21.5992 81.5Z" fill="#E15498"/>
<path d="M49.3301 41C45.3303 41 30.3676 56 37.3675 63.5C44.3675 71 62.7925 74.5 62.2926 63.5C61.7928 52.5 53.33 41 49.3301 41Z" stroke="#5B253D" stroke-width="2"/>
<path d="M21.5992 81.5C11.5255 75.9913 4.55683 59.8457 12.3301 58C20.1034 56.1543 21.7761 55.5235 34.8301 65C32.8395 75.8235 30.314 83.1477 21.5992 81.5Z" stroke="#5B253D" stroke-width="2"/>
<circle cx="24.0002" cy="69" r="4" fill="#E15498" stroke="#5B253D" stroke-width="2"/>
<circle cx="46.0002" cy="59" r="4" fill="#E15498" stroke="#5B253D" stroke-width="2"/>
<path d="M45.0992 64.5C45.0992 69.0618 40.7647 73 35.0992 73C29.4337 73 25.0992 69.0618 25.0992 64.5C25.0992 59.9382 29.4337 56 35.0992 56C40.7647 56 45.0992 59.9382 45.0992 64.5Z" fill="#E15498" stroke="#5B253D" stroke-width="2"/>
</svg>
